<?xml version="1.0" encoding="utf-8"?>
<!-- Generator: Adobe Illustrator 25.0.1, SVG Export Plug-In . SVG Version: 6.00 Build 0)  -->
<svg version="1.1" id="a780dc9c-2107-4fd6-8fec-765248a5097a"
	 xmlns="http://www.w3.org/2000/svg" xmlns:xlink="http://www.w3.org/1999/xlink" x="0px" y="0px" viewBox="0 0 887.8 772.8"
	 style="enable-background:new 0 0 887.8 772.8;" xml:space="preserve">
<style type="text/css">
	.st0{fill:#E6E6E6;}
	.st1{fill:#FF6584;}
	.st2{fill:#3F3D56;}
	.st3{fill:#210654;}
	.st4{fill:#545252;}
	.st5{fill:#FFFFFF;}
</style>
<polygon class="st0" points="494,728.1 887.8,728.1 635.5,772.8 0,763.2 "/>
<circle class="st1" cx="155.9" cy="101.7" r="101.7"/>
<path class="st2" d="M676,705.9c30.5-3.6,32,27.5,32,27.5"/>
<circle class="st3" cx="716.5" cy="688.5" r="15.3"/>
<rect x="714.7" y="714.2" class="st2" width="4.3" height="30.1"/>
<path class="st2" d="M173.5,711.2c30.5-3.6,32,27.5,32,27.5"/>
<circle class="st3" cx="214.1" cy="693.8" r="15.3"/>
<rect x="212.3" y="719.5" class="st2" width="4.3" height="30.1"/>
<path class="st2" d="M100.1,716.5c30.5-3.6,32,27.5,32,27.5"/>
<circle class="st3" cx="140.6" cy="699.2" r="15.3"/>
<rect x="138.8" y="724.9" class="st2" width="4.3" height="30.1"/>
<path class="st2" d="M555.7,691c30.5-3.6,32,27.5,32,27.5"/>
<circle class="st3" cx="596.3" cy="673.6" r="15.3"/>
<rect x="594.4" y="699.3" class="st2" width="4.3" height="30.1"/>
<path class="st2" d="M782.4,696.3c30.5-3.6,32,27.5,32,27.5"/>
<circle class="st3" cx="823" cy="678.9" r="15.3"/>
<rect x="821.2" y="704.6" class="st2" width="4.3" height="30.1"/>
<circle class="st4" cx="445.5" cy="503.5" r="166.2"/>
<path class="st5" d="M551.8,515.2c18.6-19.5,17.9-50.5-1.6-69.1s-50.5-17.9-69.1,1.6s-17.9,50.5,1.6,69.1c1.7-2,3.5-3.9,5.6-5.6
	c18.6-15.6,46.4-13.1,62,5.6C550.7,516.3,551.2,515.8,551.8,515.2z"/>
<path class="st5" d="M419.7,515.2c18.6-19.5,17.9-50.5-1.6-69.1s-50.5-17.9-69.1,1.6s-17.9,50.5,1.6,69.1c1.7-2,3.5-3.9,5.6-5.6
	c18.6-15.6,46.4-13.1,62,5.6C418.7,516.3,419.2,515.8,419.7,515.2z"/>
<circle class="st2" cx="533.1" cy="464.8" r="16.8"/>
<circle class="st2" cx="401.1" cy="464.8" r="16.8"/>
<circle class="st1" cx="565.3" cy="545" r="19.6"/>
<circle class="st1" cx="340.4" cy="545" r="19.6"/>
<polygon class="st1" points="443.1,545 467.5,569.5 452.8,505.9 "/>
<polygon class="st2" points="369.4,750.4 394.3,729.5 395.5,685.7 396.5,652.5 401.6,652.7 400.7,685.7 399.5,729.5 431.2,750.4 
	421.8,750.4 399.3,735.6 398.9,750.4 393.7,750.4 394.1,736.4 377.5,750.4 "/>
<polygon class="st2" points="447.7,750.4 472.5,729.5 473.8,685.7 474.7,652.5 479.9,652.7 478.9,685.7 477.7,729.5 509.4,750.4 
	500,750.4 477.5,735.6 477.1,750.4 472,750.4 472.3,736.4 455.7,750.4 "/>
<path class="st2" d="M428.4,349.5c0,13.5,6.6,24.4,14.7,24.4c5.8,0,10.8-5.7,13.2-13.9c2.7,5.4,6.7,9,11.3,9
	c6.1,0,11.3-6.1,13.5-14.9c0.4,0.1,0.8,0.2,1.2,0.2c8.1,0,14.7-10.9,14.7-24.4s-6.6-24.4-14.7-24.4c-6.1,0-11.3,6.1-13.5,14.9
	c-0.4-0.1-0.8-0.2-1.2-0.2c-5.8,0-10.8,5.7-13.2,13.9c-2.7-5.4-6.7-9-11.3-9C435,325,428.4,336,428.4,349.5z"/>
<path class="st3" d="M601.5,566.5V444.2l0,0l0,0l0,0c27,0,48.9,21.9,48.9,48.9v24.4l0,0C650.4,544.6,628.5,566.5,601.5,566.5
	L601.5,566.5L601.5,566.5z"/>
<path class="st3" d="M289.5,444.2v122.2l0,0l0,0l0,0c-27,0-48.9-21.9-48.9-48.9v-24.4C240.6,466.1,262.5,444.2,289.5,444.2
	L289.5,444.2L289.5,444.2z"/>
<path class="st3" d="M450,310.8c102.7,0,186.2,83.5,186.2,186.2h-7.8c0-98.4-80-178.4-178.4-178.4s-178.4,80-178.4,178.4h-7.8
	C263.8,394.3,347.4,310.8,450,310.8z"/>
<path class="st2" d="M756.1,368L756.1,368L756.1,368z"/>
<path class="st2" d="M714.5,353.8c1,2.5,3.2,3.9,5,3.2s3.6-3.2,2.6-5.6c-0.1-0.3-0.3-0.7-0.5-1l-1.4-3.3l0.1-0.1l14.7-6.2l0.2-0.1
	l7.2,18.1l-1.5,0.6l-7.1-18l-1.1,0.4l7.1,18l-12.5,4.8l-3.6,1.5l0,0c-1.7,0.8-2.7,3.9-1.7,6.3c1,2.5,3.2,3.9,5,3.2s3.6-3.2,2.6-5.6
	c-0.1-0.3-0.3-0.7-0.5-1l-1.4-3.3l0.1-0.1l20.8-8.8l-7.4-18.7l0,0l-0.4-1.1l-5.5,2.3l-15.4,6.5l-3.6,1.5l0,0
	C714.5,348.2,713.6,351.3,714.5,353.8z"/>
<path class="st2" d="M673.4,382.6v0.1l5.1-2.1l0,0c2.4-1,3.7-5.4,2.3-8.8s-4.5-5.5-6.9-4.5s-5,4.4-3.7,7.8c0.2,0.5,0.4,0.9,0.7,1.3
	l1.9,4.6l-16.8,6.8l0.9-6.3c0,0-0.5-5.4,5.9-6.9l-2.8-0.5c-0.9-0.1-1.9,0.1-2.8,0.5l-1.9-0.4c0,0-5.1-0.9-5.3,5.3
	c0,0,1.5,9.5-6.1,13.8L673.4,382.6z M652.6,382.3c-0.3-2.6,1-5,3.1-6.4c-0.7,0.9-1.1,2.1-1.1,3.2c0.3,3.3-0.6,6.5-2.5,9.2
	L652.6,382.3L652.6,382.3z"/>
<path class="st2" d="M770.1,313.2c1.4,3.4,4.5,5.5,6.9,4.5s5-4.4,3.7-7.8c-0.2-0.5-0.4-0.9-0.7-1.3l-2-4.6l0.2-0.1l28.9-12.2
	c-8.5,2-13.9-5.9-13.9-5.9c-4.4-4.4-7.5-0.2-7.5-0.2l-1.7,2.5c3-2,7-1.4,9.2,1.5l5.3,4.8l-21.2,8.2l-5.1,2.1l0,0
	C770.1,305.5,768.8,309.8,770.1,313.2z"/>
<path class="st2" d="M695.2,277.4l28.9-12.2l-10.9-27.4l-7.7,3.2l-0.7,0.3l0,0l0,0l-20.7,8.7l-5.1,2.1l0,0c-2.4,1-3.7,5.4-2.3,8.8
	s4.5,5.5,6.9,4.5s5-4.4,3.7-7.8c-0.2-0.5-0.4-0.9-0.7-1.3l-2-4.6l0.2-0.1l20.4-8.6l0.3-0.1l9.9,25.1l-2.1,0.8l-9.9-25l-1.5,0.6
	l9.9,25l-17.3,6.7l-5.1,2.1l0,0c-2.4,1-3.7,5.4-2.3,8.8s4.5,5.5,6.9,4.5s5-4.4,3.7-7.8c-0.2-0.5-0.4-0.9-0.7-1.3l-2-4.6L695.2,277.4
	z"/>
<path class="st2" d="M782.7,152.1c2.4,5.9,7.7,9.4,11.9,7.7s8.6-7.6,6.3-13.5c-0.3-0.8-0.7-1.6-1.2-2.3l-3.4-7.9l0.3-0.2l49.8-21.1
	c-14.6,3.5-23.9-10.2-23.9-10.2c-7.5-7.5-12.9-0.4-12.9-0.4l-2.9,4.2c9.8-5.9,15.9,2.6,15.9,2.6l9.2,8.2l-36.4,14.2l-8.7,3.6l0,0
	C782.6,138.8,780.4,146.2,782.7,152.1z"/>
<path class="st2" d="M830,230l0.1,0.3l12.1-5l0,0c5.7-2.5,8.8-12.8,5.6-21c-3.3-8.2-10.6-13.1-16.5-10.8c-5.8,2.3-12,10.5-8.7,18.8
	c0.4,1.1,1,2.2,1.6,3.2l4.6,10.9l-40.2,16.2l2.2-15c0,0-1.3-12.8,14.1-16.5l-6.7-1.1c-2.3-0.2-4.5,0.3-6.6,1.2l-4.4-1
	c0,0-12.2-2.1-12.6,12.7c0,0,3.6,22.7-14.5,33L830,230z M780.4,229.5c0,0-1.3-10.1,7.4-15.3c-1.6,2.2-2.6,4.9-2.7,7.7
	c0,0,1.6,12-6,22.1L780.4,229.5L780.4,229.5z"/>
</svg>
