<?xml version="1.0" encoding="utf-8"?>
<!-- Generator: Adobe Illustrator 25.0.1, SVG Export Plug-In . SVG Version: 6.00 Build 0)  -->
<svg version="1.1" id="bb6babd7-81b8-4d07-9de5-763bbbeb8b25"
	 xmlns="http://www.w3.org/2000/svg" xmlns:xlink="http://www.w3.org/1999/xlink" x="0px" y="0px" viewBox="0 0 488 692.3"
	 style="enable-background:new 0 0 488 692.3;" xml:space="preserve">
<style type="text/css">
	.st0{fill:#3F3D56;}
	.st1{fill:#FFB9B9;}
	.st2{fill:#2F2E41;}
	.st3{fill:#210654;}
	.st4{fill:#E6E6E6;}
</style>
<rect y="627.8" class="st0" width="488" height="2"/>
<path class="st1" d="M313.6,192.5c0,0-20.7,3.5-31.4,1.5s-31.8,9.1-31.8,9.1l-55.9,20.7c0,0-50.5,41.4-57.6,12.6
	c-4-16.2,48.1-29.1,48.1-29.1l91.6-43.9l33.3-11.5L313.6,192.5z"/>
<path class="st2" d="M317.6,313.1l-14.6,14l2.6,61c0,0,3,80,2,83s-19,125-19,125s21,10,40,4c0,0,19-90,19-116l22-91l34,104
	c0,0,2,70,6,93s4,26,4,26s32,9,40,0c0,0-4-118-7-130l-7-143L317.6,313.1z"/>
<path class="st2" d="M296.6,596.1c0,0-2-3-8,5s-25,23-25,23s-52,37-13,39s46-18,46-18s33-6,34-13s-4-35-4-35L296.6,596.1z"/>
<path class="st2" d="M415.6,614.1c0,0-7,24-5,34s-4,47,24,44s19-35,19-35l-9-41L415.6,614.1z"/>
<circle class="st1" cx="376.1" cy="57.6" r="33"/>
<path class="st1" d="M356.6,75.1c0,0,10,35,2,48s54,2,58-10c0,0-20-22-17-43L356.6,75.1z"/>
<path class="st3" d="M372.6,122.1c0,0,27.4,1.9,40.7-13.1l35.6,15.2c8,3.4,12.6,11.9,11,20.5l-18.3,101.3c0,0,8.4,64,4,107
	c-4,38.8-148,0-143-33c0.5-3.5,1-7.2,1.5-10.8c4.2-32.5,10.3-64.7,18.2-96.5c2.7-10.9-4.7-72.7-4.7-72.7l44-29.2
	C361.6,111,363.6,122.1,372.6,122.1z"/>
<path class="st3" d="M342.9,137.5l-8.4-8.6l-61.3,34.5c0,0,18,31.4,25,31.5c2.7,0,34.9,1.6,42.7-8.8
	C353.6,169.4,342.9,137.5,342.9,137.5z"/>
<path class="st2" d="M368,36c4.9-0.8,9.8-1.3,14.8-1.5c3.6-0.2,7.3-0.1,10.6,1.4c4.9,2.3,7.6,7.6,9.4,12.7s3.1,10.6,6.4,14.8
	c5.5-5.8,6.6-14.4,7.5-22.3c0.6-5.6,1.1-11.6-1.5-16.6c-1.6-3.1-4.2-5.5-6.9-7.7C395.5,6.4,379.4-2,363,0.4l-0.4,2.5
	c-2.8-0.1-5.6,0.1-8.4,0.5l0.6,6.3l-8.7,0.6l-0.3,6.5l-8.8,0.3c0.2,2.5,1.3,4.9,3.1,6.6c-1.4,1-2.9,1.7-4.5,2
	c1.5,5.7,2.9,11.4,4.4,17c1.1,4.2,0.9,7.9,5.4,5.8c3.4-1.6,5.7-6.5,9.2-8.5C358.6,37.7,363.4,36.8,368,36z"/>
<path class="st1" d="M476.3,181.7l0.5,35.2l-10.2,101c0,0,5.5,53.4-11.1,55.1c-29.6,3.1-7.8-58.5-7.8-58.5l0.5-59.6
	c0,0,3.2-23.6-2.3-33s-9.2-30-9.2-30L476.3,181.7z"/>
<path class="st3" d="M448.6,127.1L448.6,127.1c8.3,0,15.6,5.5,17.9,13.5c6.4,22.1,18,63.8,15.1,64.5c-4,1-51,4-51,4L448.6,127.1z"/>
<path class="st3" d="M83.6,296.8l0.2,0.1c11.5,2.8,18.5,14.3,15.7,25.7c-1.6,6.6-6.2,12-12.5,14.7c-1.6,0.7-3.3,1.2-5.1,1.4
	c-11.7,1.8-22.5-6.2-24.3-17.9c-1.8-11.7,6.2-22.5,17.9-24.3C78.3,296.1,81,296.2,83.6,296.8L83.6,296.8z"/>
<path class="st4" d="M83.6,296.8c2.1,13.4,3.2,26.9,3.5,40.5c-1.6,0.7-3.3,1.2-5.1,1.4c0.1-14.2-1.1-28.4-3.7-42.4
	C80.1,296.2,81.9,296.4,83.6,296.8z"/>
<path class="st0" d="M168.6,301.3l-73.2,3l2.1,24.2l72.8-11c2.7-0.4,4.6-2.8,4.3-5.5l-0.1-0.9l2.9-0.1c1.4-0.1,2.5-1.2,2.4-2.6
	c0-0.1,0-0.2,0-0.3l0-0.1c-0.2-1.3-1.4-2.3-2.8-2.1l-3.1,0.3l-0.1-0.5C173.4,303.1,171.2,301.1,168.6,301.3z"/>
<path class="st4" d="M128,315.5c-0.2,0.6-0.7,1.1-1.4,1.1l-5.3,0.2c-0.7,0-1.4-0.5-1.5-1.2l-0.5-2.9c-0.1-0.8,0.4-1.6,1.2-1.7
	c0,0,0.1,0,0.1,0l5.3-0.6c0.8-0.1,1.5,0.5,1.6,1.3l0,0l0.5,3.3C128.1,315.1,128.1,315.3,128,315.5z M120.3,312.4c0,0.1,0,0.1,0,0.2
	l0.5,2.9c0,0.2,0.3,0.4,0.5,0.4l5.3-0.2c0.3,0,0.5-0.2,0.5-0.5c0,0,0,0,0-0.1l-0.5-3.3c0-0.3-0.3-0.5-0.5-0.4l-5.3,0.6
	c-0.1,0-0.3,0.1-0.3,0.2C120.3,312.2,120.3,312.3,120.3,312.4z"/>
</svg>
