<?xml version="1.0" encoding="utf-8"?>
<!-- Generator: Adobe Illustrator 25.0.1, SVG Export Plug-In . SVG Version: 6.00 Build 0)  -->
<svg version="1.1" id="a0c20882-2d18-455a-ade1-f7c359a0c63a"
	 xmlns="http://www.w3.org/2000/svg" xmlns:xlink="http://www.w3.org/1999/xlink" x="0px" y="0px" viewBox="0 0 1099.2 725.8"
	 style="enable-background:new 0 0 1099.2 725.8;" xml:space="preserve">
<style type="text/css">
	.st0{opacity:0.1;fill:#6C63FF;enable-background:new    ;}
	.st1{fill:url(#SVGID_1_);}
	.st2{fill:#3A3768;}
	.st3{fill:#3F3D56;}
	.st4{fill:#F86D70;}
	.st5{fill:#A1616A;}
	.st6{fill:#EE8E9E;}
	.st7{opacity:5.000000e-02;enable-background:new    ;}
	.st8{opacity:0.1;}
	.st9{fill:#210654;}
	.st10{fill:#6C63FF;}
	.st11{opacity:0.1;enable-background:new    ;}
	.st12{fill:#EFB7B9;}
	.st13{fill:#4C4981;}
	.st14{fill:#444053;}
	.st15{fill:#925978;}
	.st16{opacity:0.1;fill:#FFFFFF;enable-background:new    ;}
	.st17{fill:none;stroke:#444053;stroke-miterlimit:10;}
	.st18{fill:url(#SVGID_2_);}
	.st19{fill:#2D293D;}
	.st20{opacity:5.000000e-02;}
	.st21{fill:#FFCDD3;}
	.st22{fill:#DCE6F2;}
</style>
<circle class="st0" cx="985.6" cy="371.1" r="21.6"/>
<circle class="st0" cx="1062.9" cy="274.6" r="36.2"/>
<circle class="st0" cx="455.3" cy="27.8" r="21.6"/>
<circle class="st0" cx="703.4" cy="52.6" r="21.6"/>
<circle class="st0" cx="36.2" cy="326.2" r="36.2"/>
<path class="st0" d="M608.1,119.7c-64.7-2.4-126.4-24.9-185.2-49.4S305.7,18.5,242.6,5.5C202-2.9,155.5-4.1,122.8,19.3
	C91.2,41.9,81,80.7,75.6,116.8c-4.1,27.1-6.5,55.7,4.7,81.1c7.8,17.6,21.7,32.5,31.4,49.4c33.5,58.8,9.8,131.3-26.5,188.7
	c-17,26.9-36.7,52.6-49.9,81.3s-19.2,61.5-7.8,90.7c11.4,29,38.5,50.7,67.9,66c59.7,31.1,130,40,198.6,45
	c151.8,11.2,304.5,6.3,456.7,1.5c56.3-1.8,112.9-3.6,168.3-13c30.8-5.2,62.6-13.5,84.9-33.4c28.4-25.3,35.4-68.1,16.4-99.8
	c-31.9-53.2-120-66.4-142.3-123.4c-12.3-31.4,0.3-66.4,18.2-95.5c38.2-62.5,102.3-117.3,105.7-188.7c2.3-49-28.5-98.2-76.1-121.4
	c-49.9-24.3-119.2-21.3-156,19C731.9,105.9,665.2,121.8,608.1,119.7z"/>
<linearGradient id="SVGID_1_" gradientUnits="userSpaceOnUse" x1="573.0199" y1="147.2851" x2="725.6602" y2="147.2851" gradientTransform="matrix(-1 0 0 -1 1547.6 640.89)">
	<stop  offset="0" style="stop-color:#808080;stop-opacity:0.25"/>
	<stop  offset="0.54" style="stop-color:#808080;stop-opacity:0.12"/>
	<stop  offset="1" style="stop-color:#808080;stop-opacity:0.1"/>
</linearGradient>
<path class="st1" d="M821.9,395.6c0.1,1.3,0.5,2.5,1.3,3.5c1.5,1.8,3.3,3.3,5.3,4.5v5.4c0,0,16,13.4,19.3,18.4
	c3.2,4.8,6.4,9.7,10.9,13.3c1.2,1,2.6,1.8,4.1,2.2h0.3c-0.4,0.4-1,0.8-1.6,1c0.3,2,2.1,3.4,4.2,3.2c0.1,0,0.1,0,0.2,0
	c0.8-0.2,1.5-0.6,2.2-1.1l6.3-4.1c1.1-0.6,2-1.4,3-2.2c1.2-1.2,2-2.7,3.2-3.9c2-2.1,4.8-3.3,6.2-5.8c0.9-1.6,1-3.4,1.6-5.1
	c0.3-1.1,0.9-2.2,1.2-3.3c0.2-0.7,0.3-1.4,0.4-2.1c0.2,0.2,0.5,0.4,0.7,0.6c0.5-0.3,1.4,0.5,1.2,1.1c-0.2,0.5-0.8,0.9-0.9,1.5
	c-0.4,1.3,1.2,2.2,1.8,3.4s0.3,2.7,0.4,4s0.7,2.9,0.9,4.4c0.5,3.5-1.3,7.2,0,10.4c-1.5,0-2.9,1-3.2,2.5c-0.3,1.5-0.3,3,0.1,4.5
	c-2,1.2-3.1,3.3-3,5.6c0.1,0.3,0,0.7-0.1,1c-0.2,0.2-0.4,0.3-0.6,0.3c-2.1,0.9-3.5,2.9-3.5,5.2c0,0.4,0,0.8-0.1,1.1
	c-0.2,0.3-0.5,0.6-0.8,0.8c-1.5,1.2-2.4,3.1-2.4,5.1c-0.1,1.3,0.6,2.6,1.7,3.3h0.1c-3.3,2.9-5.5,7-6,11.4c-0.2,3.9,0,7.9,0.8,11.8
	h0.4c0,0.1,0,0.2,0,0.2s0,0.1,0,0.1c0.1,0.6,0.3,1.2,0.6,1.7c1.3,2.8,2,5.7,2.2,8.8c0,0.7,0.1,1.5,0.3,2.2c0.3,0.7,0.7,1.3,1.1,1.9
	c1.3,2.2,1.6,4.8,2.1,7.3c0.6,3.3,1.4,6.5,2.5,9.6c1.5,4.2,3.6,8.6,2.9,13c-0.3,1-0.4,2.1-0.4,3.2c0.2,1.2,0.6,2.3,1.3,3.4
	c0.5,1,1,2.1,1.4,3.1c0,0.6,0.2,1.2,0.6,1.7c0.1,0.3,0.2,0.7,0.3,1s0.2,0.5,0.2,0.8c0.1,0.4,0.2,0.9,0.3,1.4l-0.1,1v1
	c-0.1,0.3-0.3,0.6-0.5,0.9c-0.1,0.1-0.2,0.2-0.3,0.3l-0.2,0.3c-0.1,0.1-0.2,0.2-0.3,0.4l0,0c-0.1,0.4-0.2,0.8-0.1,1.2
	c0,0.2,0.1,0.3,0.1,0.5c0.2,1.1,0.5,2.2,0.8,3.2c0.1,0.3,0.2,0.7,0.2,1c0.2,0.8,0.4,1.7,0.7,2.5v0.1l0.2,0.6l0.6,2.1
	c0.1,0.4,0.2,0.8,0.3,1.2l0.4,1.5c0.3,1.2,0.7,2.3,1,3.5c3.6,11.8,7.4,23.5,9.8,35.6c0.2,0.9,0.7,1.6,1.4,2.1c0.7,0.6,1.6,1,2.5,1.3
	c0.2,1.8,0.8,3.9,0.9,5c0.2,3.5,0.4,7.2-0.9,10.4c-0.3-0.1-0.6,0-0.8,0.2c-0.8,0.8-1.6,1.6-2.3,2.4l-4.7,5c-0.4,0.4-0.8,0.8-1.1,1.3
	c-0.7,1.1-0.8,2.5-0.5,3.7c0.4,1.2,1.3,2.3,2.4,2.9c0.3,0.1,0.5,0.3,0.8,0.4c0.1,0.1,0.3,0.3,0.5,0.4c0.3,0.2,0.7,0.2,1,0.2
	c2.7-0.2,5.3-0.6,7.9-1.3c1.2-0.2,2.3-0.7,3.2-1.5c0.5-0.6,0.9-1.4,1.1-2.2l0.9-2.6c0.6-1.6,1.1-3.2,1.4-4.8c0.3-1.7,0.3-3.4-0.2-5
	c-0.1,0.1-0.2,0.3-0.2,0.4c0.2-1.5,0.5-2.9,0.7-4.4c0.1-0.4,0.1-0.9,0.2-1.3c0.3,3.9-0.3,7.8-0.1,11.7c-0.2,0.7-0.3,1.5-0.4,2.2
	c0.3,3.6,1.8,7.5,4.6,9.6c0.5,0.4,1,0.7,1.6,0.8c0.5,0.1,1.1,0.1,1.6,0c2.1-0.1,4.2-0.5,6.2-1.2c2-0.7,3.7-2.3,4.5-4.3
	c0.3-1,0.5-2,0.5-3.1c0.1-1.1,0-2.2-0.3-3.2c-0.4-1.3-1-2.6-1.6-3.8c-0.8-1.8-1.4-3.7-1.9-5.6l-0.9-3.2c-0.2-0.9-0.5-1.8-0.8-2.7
	c-0.2-0.8-0.6-1.5-1.1-2.1c-0.4-0.3-0.6-0.3-0.8-0.1c0-0.1,0-0.2,0-0.3c0.1-1.2,0.2-2.5,0.2-3.7c-0.2-2-1.8-3.6-2.9-5.4
	c-0.5-0.9-0.9-1.9-1.1-2.9c-0.1-0.2-0.1-0.4-0.1-0.7c0.2-0.2,0.4-0.3,0.6-0.4l1.8,1c-1.6-11.8-0.7-24.2-5.3-35.2
	c-2-4.8-5.8-9.8-5.4-14.9c-1.8-1.5-1.9-4.2-0.4-5.9c0.3-0.3,0.6-0.6,0.9-0.8c0.8-0.4,1.7-0.6,2.2-1.3c0.3-0.4,0.4-0.8,0.5-1.3
	c2.5-10.1,5.8-20,9.9-29.7c0.9-2.1,1.8-4.2,2.7-6.3l3.1-7l3.8-8.6c1.3-2.9,2.6-6.2,1.4-9.1c-0.5-1.2-1.3-2.2-1.2-3.5
	c0.2-0.8,0.5-1.5,0.7-2.3c0.1-0.8,0.1-1.7-0.2-2.5c-0.2-1.1-0.5-2.2-0.8-3.2c0.8,0.1,1.6,0.3,2.4,0.5c0.5-0.8-0.3-1.8-0.8-2.6
	c-0.5-1.1-0.8-2.3-0.9-3.6l-1-10.1c-0.2-1.4-0.2-2.8-0.1-4.2c0.2-1.5,0.8-2.9,1.1-4.4c0.5-2.8,0-5.8,0.2-8.6
	c0.2-2.5,0.6-5.1,1.3-7.5c0.1-0.4,0.2-0.7,0.3-1.1c0.5,0.1,1,0.2,1.5,0.2h0.5h0.2h0.4h0.2c0.2,0,0.4-0.1,0.5-0.1h0.1
	c0.2-0.1,0.4-0.1,0.6-0.2c-0.2-0.5-0.5-1-0.7-1.5c-0.1-0.2-0.2-0.4-0.2-0.6s-0.2-0.6-0.3-0.9s-0.2-0.5-0.3-0.8s-0.2-0.5-0.2-0.7
	s-0.2-0.6-0.3-1s-0.2-0.7-0.3-1l0.2-0.3c0.5,0.4,1.1,0.8,1.7,1.1c2,3.5,3.8,7,5.5,10.6c0.3-0.4,0.4-0.8,0.5-1.3
	c0.2,0.3,0.4,0.6,0.7,0.9c0.7,0.7,1.5,1.2,2.3,1.7c0.8,0.6,1.8,0.9,2.8,1c1.3,0,2.6-0.6,3.5-1.5c2.9-2.5,4.4-6.3,5.7-10
	c1.9-4.8,3.4-9.7,4.3-14.7c0.8-5.4,0.5-11.1,2-16.3c-1.4-2.8-2.3-5.8-3.8-8.5c-1-1.6-1.9-3.2-2.6-5c-1.5-3.6-1.6-7.7-0.5-11.4
	c-0.6-0.4-1.3-0.3-1.8,0.1c-0.5,0.4-0.9,1-1.1,1.6c-0.9,2.1-1.3,4.4-1.1,6.7c0.1,0.6,0,1.1-0.2,1.6c-0.4,0.5-1.1,0.8-1.8,0.8
	c-1.4-0.1-2.8-0.3-4.1-0.8c-3.7-1-7.6-1.3-11.5-1.1c-0.3-0.4-0.6-0.7-1-1l-0.4-0.4l-0.4-0.3l-0.2-0.2c-0.1-0.1-0.3-0.2-0.4-0.4
	c-0.5-0.4-0.9-1.1-1-1.8c0-0.1,0-0.2,0-0.3c0-0.1,0-0.2,0-0.2c0.1-0.2,0.1-0.5,0.2-0.7c0.1-0.2,0.1-0.3,0.2-0.5l0.1-0.2
	c0-0.1,0.1-0.1,0.1-0.2c0.1-0.3,0.2-0.6,0.3-0.8c0.1-0.3,0.2-0.6,0.2-0.9c0.1-0.3,0.1-0.6,0.1-0.9c0-0.3,0-0.6,0-0.9s0-0.3,0-0.5
	c-0.1-0.6-0.2-1.2-0.4-1.8c-0.1-0.4-0.3-0.9-0.5-1.3c-0.2-0.5-0.5-1.1-0.8-1.6c-0.6-1-1.4-2-2.1-2.9l-0.6-0.7l-0.6-0.7
	c-0.6-0.7-1.2-1.4-1.7-2.1c-0.4-0.5-0.7-1.1-1-1.8c-0.1-0.2-0.2-0.4-0.2-0.6c-0.1-0.4-0.2-0.8-0.2-1.2c0-0.1,0-0.3,0-0.4
	c0-0.6,0-1.1,0.1-1.7c0.1-0.8,0.2-1.6,0.3-2.4c0.1-0.5,0.2-1.1,0.2-1.6c0-0.3,0.1-0.5,0.1-0.8c0.1-0.5,0.1-1.1,0.2-1.6
	c0.2-1.5,0.1-3.1-0.3-4.6c-0.1-0.5-0.3-1-0.5-1.5c-0.3-0.6-0.6-1.2-1-1.8c-1.4-1.9-3.3-3.4-5.6-4.3c-1.6-0.7-3.3-1.3-5.1-1.6
	c-0.7-0.2-1.4-0.3-2.1-0.4c-10.4-1.7-21.4,1.5-28,10c-3.4,4.4-6.3,9.4-7.6,14.8c-1.2,5.5-0.7,11.5,2.4,16.2c1.3,2,3,3.7,4.1,5.7
	c0.9,1.7,1.5,3.6,2.5,5.2c1.3,2.1,3.3,3.7,5.5,4.7l-0.4,0.4c-1-0.1-2.1-0.1-3.1,0.1c-1.1,0.2-2.1,0.6-3.2,0.7
	c-1.3,0.2-2.7-0.1-4,0.1c-2.5,0.3-4.5,2-6.3,3.7c-2.2,1.9-4.5,4.1-4.7,7v0.1l-1.5,2c-0.4,0.4-0.7,0.9-0.9,1.5
	c-0.6,1.4-0.3,3-0.6,4.5c-0.2,0.9-0.6,1.8-1.2,2.7c-1.5,2.6-3.1,5.1-5,7.5c-0.8,1.2-1.9,2.2-3.1,3.1c-1,0.6-2.1,1-3.2,0.9
	c-1.7-0.8-3.3-1.9-4.7-3.2c-1.6-1.6-3-3.3-4.2-5.2c-2.4-3.4,5,6.8,2.6,3.4l-21.3-35.6c-0.4-1.7-0.7-3.4-0.8-5.1
	c0-0.7-0.3-1.5-0.9-1.5c-0.3,0-0.6,0.1-0.8,0.4c-1,0.9-1.5,2.3-1.4,3.7c-1.1-0.2-2.3,0-3.3,0.6c-0.8,0.6-1,1.8-0.4,2.6
	c0,0,0,0,0,0.1v0.3c-0.6,0.3-0.9,0.9-0.8,1.5c-1.2-0.4-2.4-0.3-3.5,0.2c-1,0.6-1.5,2.3-0.4,3C822.7,393.2,821.9,394.4,821.9,395.6z
	 M955.6,400.7c0.6,0.2,1.2,0.4,1.9,0.5c2,0.5,3.9,1.1,5.8,2c0.6,0.2,1.1,0.6,1.5,1.1c0.4,0.9,0.3,2-0.2,2.8l-2.6,7.1
	c-0.4,1.1-0.8,2.2-1.3,3.3c-0.2,0.4-0.4,0.9-0.7,1.3c-0.1-0.2-0.2-0.5-0.2-0.7c-0.8-2.2-1.4-4.4-1.9-6.6c-0.4-1.9-0.8-3.9-1.1-5.9
	C956.5,404,956.1,402.4,955.6,400.7L955.6,400.7z M952.9,395.2l0.2,0.1c0.3,0.1,0.5,0.3,0.7,0.5c0.2,0.3,0.2,0.7,0,1L952.9,395.2z
	 M948.1,388.3l3.2,0.5c0.8,0,1.5,0.3,2.1,0.7c0.6,0.5,0.8,1.4,0.3,2c-0.2,0.2-0.5,0.3-0.7,0.5c-0.6,0.5-0.9,1.3-0.8,2.1
	c-0.5-1-1.1-1.9-1.8-2.8c-0.6-0.8-1.3-1.5-2.1-2.2C948.2,388.8,948.2,388.5,948.1,388.3z M917.7,615.6c0.4,0,0.8,0,1.2,0
	c-0.2,0.9-0.2,1.9-0.2,2.8L917.7,615.6z"/>
<path class="st2" d="M921.9,339.1c5.5,0.9,11.6,3,13.7,8.1c1.6,3.9,0.4,8.3,0,12.4c-0.2,1.1-0.1,2.2,0.1,3.3
	c0.6,1.7,1.6,3.3,2.9,4.5c1.7,1.7,3.1,3.7,4.2,5.9c1.1,2.2,1.2,4.7,0.3,7c-0.3,0.6-0.6,1.2-0.7,1.8c-0.1,1.4,1.4,2.3,2.5,3.2
	c4.1,3.4,3.9,9.6,4,15c0.1,10.9,2.5,21.7,7.2,31.6c-3.6,1.8-7.8,1.2-10.8-1.4c0.6,2.4,1.4,4.8,2.5,7.1c-3.5,1.7-7.7-1.1-9.4-4.5
	s-2-7.5-3.2-11.1s-3.5-6.9-4.5-10.6c-0.2-1.2-0.6-2.4-1.2-3.5c-0.6-0.7-1.4-1.4-2.2-1.9c-3.6-2.6-6.3-6.3-7.8-10.5
	c-4.3,1-8.6,1.9-13,1.5s-8.8-2.4-11.1-6.1c-1-1.6-1.6-3.5-2.5-5.2c-1.2-2.1-2.8-3.8-4.1-5.7c-3.1-4.7-3.6-10.7-2.4-16.1
	c1.2-5.5,4.1-10.4,7.6-14.8C900.5,340.6,911.5,337.4,921.9,339.1z"/>
<path class="st3" d="M921.9,339.1c5.5,0.9,11.6,3,13.7,8.1c1.6,3.9,0.4,8.3,0,12.4c-0.2,1.1-0.1,2.2,0.1,3.3
	c0.6,1.7,1.6,3.3,2.9,4.5c1.7,1.7,3.1,3.7,4.2,5.9c1.1,2.2,1.2,4.7,0.3,7c-0.3,0.6-0.6,1.2-0.7,1.8c-0.1,1.4,1.4,2.3,2.5,3.2
	c4.1,3.4,3.9,9.6,4,15c0.1,10.9,2.5,21.7,7.2,31.6c-3.6,1.8-7.8,1.2-10.8-1.4c0.6,2.4,1.4,4.8,2.5,7.1c-3.5,1.7-7.7-1.1-9.4-4.5
	s-2-7.5-3.2-11.1s-3.5-6.9-4.5-10.6c-0.2-1.2-0.6-2.4-1.2-3.5c-0.6-0.7-1.4-1.4-2.2-1.9c-3.6-2.6-6.3-6.3-7.8-10.5
	c-4.3,1-8.6,1.9-13,1.5s-8.8-2.4-11.1-6.1c-1-1.6-1.6-3.5-2.5-5.2c-1.2-2.1-2.8-3.8-4.1-5.7c-3.1-4.7-3.6-10.7-2.4-16.1
	c1.2-5.5,4.1-10.4,7.6-14.8C900.5,340.6,911.5,337.4,921.9,339.1z"/>
<path class="st4" d="M956.5,407.7c0.3,2,0.7,3.9,1.1,5.9c0.5,2.2,1.1,4.5,1.9,6.6c0.4,0.9,0.6,2,0.6,3c-0.1,0.6-0.4,1.3-0.7,1.8
	c-2.5,4.5-5.9,8.8-6.2,13.8c-0.1,1.3,0,2.6-0.7,3.7c-1.9-4.2-4.1-8.2-6.4-12.2c-2.4-4.1-5.2-8.3-5.8-13.1c-0.3-2.2-0.3-4.5,0.1-6.7
	c0.2-2.5,1-5,2.4-7.1c1.7-2.2,6.2-5.4,9.1-4.8C955.4,399.6,956.1,404.9,956.5,407.7z"/>
<path class="st5" d="M868.2,431.7c-3.3-1.3-6.6-2.8-9.2-5.2c-1.6-1.6-3-3.3-4.2-5.2l-7.7-11.1c-1.8-2.7-3.7-5.4-4.1-8.6
	c-4.5-4.8-7.2-11-7.7-17.5c0-0.7-0.3-1.5-0.9-1.5c-0.3,0-0.6,0.1-0.8,0.4c-1,0.9-1.5,2.3-1.4,3.7c-1.1-0.2-2.3,0-3.3,0.6
	c-0.9,0.7-1.2,2.3-0.2,2.8c-0.7,0.2-1.1,0.9-1,1.6c-1.2-0.4-2.4-0.3-3.5,0.2c-1,0.6-1.5,2.3-0.4,3c-1.2,0.4-2,1.6-2,2.9
	c0.1,1.3,0.5,2.5,1.3,3.5c3,4,8.2,5.6,11.6,9.2c1.1,1.2,2.1,2.6,3,4l10,15.1c3.2,4.8,6.4,9.7,10.9,13.3c1.2,1,2.6,1.8,4.1,2.2
	c1.5,0.4,3.2-0.1,4.3-1.2c1-1.1,1.2-2.8,1.2-4.3C868.4,436.9,868,434.2,868.2,431.7z"/>
<path class="st3" d="M901.5,641.9c-0.4,0.4-0.7,0.8-1.1,1.3c-0.7,1.1-0.8,2.5-0.5,3.7c0.4,1.2,1.3,2.2,2.4,2.8
	c0.3,0.1,0.5,0.3,0.8,0.4c0.1,0.1,0.3,0.3,0.5,0.4c0.3,0.2,0.7,0.2,1,0.2c2.7-0.2,5.3-0.6,7.9-1.3c1.2-0.2,2.3-0.7,3.2-1.5
	c0.5-0.6,0.9-1.4,1.1-2.2l0.9-2.6c0.6-1.6,1.1-3.2,1.4-4.8c0.3-1.7,0.2-3.4-0.3-5c-0.2,0.3-0.3,0.6-0.3,1c-0.3,1.8-1,3.4-2,4.8
	c-0.2,0.4-0.5,0.7-0.8,1c-0.7,0.5-1.5,0.9-2.3,1c-1.6,0.4-3.3,0.6-5,0.6c-0.2,0-0.5,0-0.7-0.1c-0.3-0.2-0.5-0.4-0.6-0.7
	c-0.2-0.6-0.2-1.4,0-2c0.5-1.3,1.7-2.1,2.3-3.3c0.4-0.9-0.2-1.9-1.1-1.1c-0.8,0.8-1.6,1.6-2.3,2.4L901.5,641.9z"/>
<path class="st6" d="M910.1,623.9c0.3,4.2,0.5,8.7-1.8,12.2c-0.8,1.3-1.9,2.3-2.9,3.5c-0.5,0.6-0.9,1.3-1,2.1
	c-0.1,1.5,1.3,2.8,2.8,3.1c1.5,0.2,3.1-0.1,4.5-0.7c1.4-0.3,2.7-1,3.8-1.8c2-1.7,2.5-4.5,2.9-7.1l0.9-6c0.3-1.4,0.4-2.9,0.3-4.4
	c-0.2-1.6-0.6-3.2-1.2-4.7l-1.5-4.5c-0.1-0.4-0.3-0.8-0.7-1.1c-0.4-0.2-0.8-0.3-1.2-0.2c-1.5,0.1-5.2,0.6-5.9,2.2
	C908.7,618,910,622.3,910.1,623.9z"/>
<path class="st7" d="M910.1,623.9c0.3,4.2,0.5,8.7-1.8,12.2c-0.8,1.3-1.9,2.3-2.9,3.5c-0.5,0.6-0.9,1.3-1,2.1
	c-0.1,1.5,1.3,2.8,2.8,3.1c1.5,0.2,3.1-0.1,4.5-0.7c1.4-0.3,2.7-1,3.8-1.8c2-1.7,2.5-4.5,2.9-7.1l0.9-6c0.3-1.4,0.4-2.9,0.3-4.4
	c-0.2-1.6-0.6-3.2-1.2-4.7l-1.5-4.5c-0.1-0.4-0.3-0.8-0.7-1.1c-0.4-0.2-0.8-0.3-1.2-0.2c-1.5,0.1-5.2,0.6-5.9,2.2
	C908.7,618,910,622.3,910.1,623.9z"/>
<path class="st3" d="M877.1,499.7c0,0,0,0.1,0,0.1c0.1,0.6,0.3,1.2,0.6,1.7c1.3,2.8,2,5.7,2.2,8.8c0,0.7,0.1,1.5,0.3,2.2
	c0.3,0.7,0.7,1.3,1.1,1.9c1.3,2.2,1.6,4.8,2.1,7.3c0.6,3.3,1.4,6.5,2.5,9.6c1.5,4.2,3.6,8.6,2.9,13c-0.3,1-0.4,2.1-0.4,3.2
	c0.2,1.2,0.6,2.3,1.2,3.4c0.5,1,1,2.1,1.4,3.1s0.8,2.3,1.2,3.5c0.4,1.4,0.7,3.1-0.3,4.3c-0.3,0.3-0.6,0.6-0.8,0.9
	c-0.2,0.5-0.2,1.1,0,1.6c0.5,2.3,1.1,4.6,1.7,6.8c0.5,1.8,1,3.5,1.5,5.3c3.9,12.9,8.2,25.8,10.8,39c0.4,1.9,2.8,3.3,4.7,3.7
	c1.9,0.4,3.9-0.1,5.4-1.5c0.1-0.1,0.3-0.2,0.4-0.4c2-2.1,2.3-5.4,2.1-8.4c-0.7-13.6-7.5-26.1-10.8-39.4c-1.2-4.8-1.9-9.7-2.1-14.6
	c-0.8-16.5-1.1-33.9,3.6-49.7c1-3.3,2.1-7,0.4-10c-1.1-1.9-3.1-3-5.1-3.8c-8.3-3.2-17.6-3-25.7,0.7c0,0.3,0,0.7,0,1
	c0.2,1.5,0,3.1-0.5,4.5C877.3,498.4,877.2,499,877.1,499.7z"/>
<path class="st3" d="M933.5,628.1l0.9,3.2c0.5,1.9,1.1,3.8,1.8,5.6c0.7,1.2,1.2,2.5,1.7,3.8c0.2,1.1,0.3,2.2,0.3,3.2
	c0,1-0.1,2.1-0.5,3.1c-0.8,2-2.5,3.5-4.5,4.3c-2,0.7-4.1,1.1-6.2,1.2c-0.5,0.1-1.1,0.1-1.6,0c-0.6-0.2-1.1-0.5-1.6-0.8
	c-2.9-2.1-4.4-6-4.6-9.6c0.1-0.8,0.2-1.7,0.5-2.5c0.2-0.3,2.4,0.9,1.5,2c-1.4,1.5,2.7,0.7,4.7,0.6c0.9-0.1,1.8-0.2,2.7-0.4l3.3-0.7
	c1.1-0.2,2.3-0.6,2.7-1.7s-0.5-2.3-1.1-3.3c-1.8-2.7-2.2-6-2.6-9.2c-0.1-0.6-0.9-4.7,0.8-3.4c0.6,0.6,0.9,1.3,1.1,2.1
	C933,626.3,933.3,627.2,933.5,628.1z"/>
<path class="st7" d="M892,561.8c1-1.2,0.7-2.8,0.3-4.3c-0.2-0.5-0.3-1.1-0.5-1.6l13.1-4.4c0,1.2,0.1,2.3,0.2,3.5
	c0.2,4.9,0.9,9.8,2.1,14.6c3.3,13.2,10.1,25.7,10.8,39.4c0.2,3.1-0.2,6.7-2.5,8.8c-1.5,1.3-3.5,1.9-5.4,1.4
	c-1.9-0.4-4.3-1.8-4.7-3.7c-2.6-13.2-7-26.1-10.8-39c-1.2-4-2.3-8.1-3.2-12.2c-0.2-0.5-0.2-1.1,0-1.6
	C891.5,562.4,891.7,562.1,892,561.8z"/>
<path class="st6" d="M928.2,613.8c1,1.8,2.6,3.4,2.8,5.4c0,1.2-0.1,2.5-0.2,3.7c0.1,1,0.2,2,0.5,3c1.3,4.6,2.7,9.1,4.4,13.6
	c0.3,0.6,0.4,1.2,0.3,1.8c-0.3,1-1.1,1.8-2.2,2.2c-3.1,1.3-6.6,1.2-10,1.1c-1,0-2-0.2-2.8-0.7c-1.2-0.8-1.5-2.5-1.6-3.9
	c-0.2-4.2,0.5-8.5,0-12.8c-0.2-1.5-0.5-3.1-0.7-4.6c-0.5-2.1-0.4-4.3,0.2-6.4c0.6-1.5,1.4-2.8,2.4-4c0.9-1.3,2-2.4,3.3-3.3
	c0.4-0.2,1.5-1,1.9-0.5c0.2,0.2,0.1,0.8,0.2,1.1c0.1,0.4,0.1,0.9,0.2,1.3C927.3,611.9,927.7,612.9,928.2,613.8z"/>
<path class="st7" d="M903,505c0.5,0.9,0.6,2,0.2,3c-0.4,1.8-1.2,3.5-1.8,5.3c-1,3.2-1.7,6.4-2.3,9.7c-0.5,3-1.7,6.2-1.2,9.2
	c-3.6,6.8-6,14.2-7,21.8c-0.3,2,4.1,4.5,4,6.5c-0.2,3.9-3.3,4.2-1,7.4c0.1,0.2-0.9,3.7-0.7,3.8c0.9,1.1,2.1,2,3.1,3.1
	c1.3,1.5,2.4,3.1,3.3,4.8c6,10.8,14.6,23,11.9,35c-0.1,0.9,0.3,1.7,1.1,2.2c0.8,0.4,1.6,0.6,2.5,0.6h0.4c2-2.1,2.3-5.4,2.1-8.4
	c-0.7-13.6-7.5-26.1-10.8-39.4c-1.2-4.8-1.9-9.7-2.1-14.6c-0.8-16.5-1.1-33.9,3.6-49.7c1-3.3,2.1-7,0.4-10c-1.1-1.9-3.1-3-5.1-3.8
	c-8.3-3.2-17.6-3-25.7,0.7c0,0.3,0,0.7,0,1c0.2,1.5,0,3.1-0.5,4.5c-0.3,0.6-0.5,1.3-0.5,2c0,0-0.2-2.7-0.2-2.6
	c5.3,0.8,10.9,4.3,16.3,5c2.8,0.3,5.5,0.9,8.2,1.8C901.9,504.1,902.6,504.5,903,505z"/>
<path class="st3" d="M940,475.9c0.7,2.3,1.4,4.6,1.9,6.9c0.2,0.8,0.3,1.6,0.2,2.5c-0.3,0.7-0.5,1.5-0.7,2.3
	c-0.1,1.2,0.7,2.3,1.2,3.5c1.2,2.9-0.1,6.2-1.3,9.1l-3.8,8.6l-3.1,7c-0.9,2.1-1.8,4.2-2.7,6.3c-4,9.6-7.3,19.5-9.9,29.6
	c-0.1,0.5-0.3,0.9-0.5,1.3c-0.5,0.7-1.5,0.9-2.2,1.3c-1.9,1.3-2.5,3.9-1.2,5.8c0.2,0.3,0.5,0.6,0.8,0.9c-0.4,5.2,3.4,10.1,5.4,14.9
	c4.6,11,3.7,23.3,5.3,35.1l-1.8-1c-1.7,0.8-1.7,3.2-2.6,4.8c-1.4,2.5-4.8,2.8-7.6,2.6c-0.9,0-1.7-0.2-2.5-0.6
	c-0.8-0.4-1.2-1.3-1.1-2.2c2.7-12-6-24.2-11.9-35c-0.9-1.7-2-3.4-3.3-4.8c-1-1.1-2.2-2-3.1-3.1c-2.6-3.2-3-7.6-2.8-11.7
	c0.4-9.7,3-19.1,7.5-27.7c-0.5-3,0.7-6.2,1.2-9.2c0.5-3.3,1.3-6.5,2.2-9.7c0.6-1.8,1.3-3.5,1.8-5.3c0.4-1,0.3-2.1-0.2-3
	c-0.4-0.5-1-0.9-1.7-1.1c-2.6-0.9-5.4-1.5-8.2-1.8l-18.4-2.6c-0.6-3.8-1.2-8-0.8-11.8c0.9-7.2,6-13.2,13-15.2
	c0.8-0.3,1.7-0.3,2.4,0.2C907.6,469.6,924.4,470.7,940,475.9z"/>
<path class="st5" d="M923.3,376.5c-0.3,1.8,0,3.6,0.8,5.3c0.5,0.9,1.3,1.7,2.1,2.3c1.8,1.4,3.8,2.5,6.1,3c1.3,0.3,2.8,0.5,3.6,1.6
	c1.3,1.6,0.4,3.9-0.7,5.6c-1.9,3-4.5,5.7-7.9,6.6c-2.7,0.7-5.6,0.3-8.4,0.8c-2,0.3-3.9,1.2-5.9,1.6c-5.7,1.3-11.8-0.3-16-4.5
	c2.9-2.3,6-4.7,7.5-8.1c1.1-2.4,1.3-5.1,0.6-7.7c-0.7-2.5-2.3-5-1.8-7.5c0.5-2.5,3-4.3,5.5-5.2c2.3-0.7,4.6-1.2,6.9-1.4
	c1.3-0.2,9.5-2,10-1.1c0.3,0.5-1.4,3.5-1.6,4.2C923.7,373.5,923.4,375,923.3,376.5z"/>
<path class="st7" d="M923.3,376.5c-0.3,1.8,0,3.6,0.8,5.3c0.5,0.9,1.3,1.7,2.1,2.3c1.8,1.4,3.8,2.5,6.1,3c1.3,0.3,2.8,0.5,3.6,1.6
	c1.3,1.6,0.4,3.9-0.7,5.6c-1.9,3-4.5,5.7-7.9,6.6c-2.7,0.7-5.6,0.3-8.4,0.8c-2,0.3-3.9,1.2-5.9,1.6c-5.7,1.3-11.8-0.3-16-4.5
	c2.9-2.3,6-4.7,7.5-8.1c1.1-2.4,1.3-5.1,0.6-7.7c-0.7-2.5-2.3-5-1.8-7.5c0.5-2.5,3-4.3,5.5-5.2c2.3-0.7,4.6-1.2,6.9-1.4
	c1.3-0.2,9.5-2,10-1.1c0.3,0.5-1.4,3.5-1.6,4.2C923.7,373.5,923.4,375,923.3,376.5z"/>
<circle class="st5" cx="913" cy="365.8" r="16.7"/>
<path class="st4" d="M921.8,393.4l-11.3,1.9c-2.8,0.6-5.6,0.9-8.5,0.9c-1.5-0.1-3.1-0.1-4.7,0c-1.1,0.2-2.1,0.6-3.2,0.7
	c-1.3,0.2-2.7-0.1-4,0.1c-2.5,0.3-4.5,2-6.3,3.6c-2.2,1.9-4.5,4.1-4.7,7c0,0.3,0,0.7,0.1,1c0.2,0.3,0.5,0.6,0.8,0.9
	c2.1,1.7,3.2,4.2,4.7,6.5c1.5,2.3,3.4,4.4,5.6,6.1c0.5-0.3,1.4,0.5,1.2,1.1c-0.2,0.5-0.8,0.9-0.9,1.5c-0.4,1.3,1.2,2.2,1.8,3.4
	s0.3,2.7,0.4,4s0.7,2.9,0.9,4.4c0.5,3.5-1.3,7.1,0,10.4c-1.5,0-2.9,1-3.2,2.5c-0.3,1.5-0.3,3,0.1,4.4c-2,1.2-3.1,3.3-3,5.6
	c0.2,0.5-0.1,1.1-0.6,1.3c0,0-0.1,0-0.1,0c-2.1,0.9-3.5,2.9-3.5,5.2c0,0.4,0,0.8-0.1,1.1c-0.2,0.3-0.5,0.6-0.8,0.8
	c-1.5,1.2-2.4,3.1-2.4,5.1c-0.1,1.3,0.6,2.6,1.7,3.3c2.4,1.1,5,1.8,7.6,2.3c2.4,0.6,4.9,1,7.4,1.3c2.3,0.2,4.6,0.3,6.9,0.2l15.1-0.1
	c4.2,0,8.5,0,12.8-0.3c4-0.3,8-0.8,11.8,0.3c0.5-0.8-0.3-1.8-0.8-2.6c-0.5-1.1-0.8-2.3-0.9-3.6l-1-10.1c-0.2-1.4-0.2-2.8-0.1-4.2
	c0.2-1.5,0.8-2.9,1.1-4.4c0.5-2.8,0-5.8,0.2-8.6c0.2-2.5,0.6-5.1,1.3-7.5l3-12.3c0.4-2.1,0.8-4.2,1.5-6.2c2.3-5.9,4.7-11.8,7.2-17.6
	c0.2-0.5,0.1-1.1-0.1-1.6l-2.5-4.5c-0.7-1.3-1.4-2.5-2.3-3.7c-2.1-2.7-5.1-4.5-8.5-5.2c-3.3-0.6-6.8-0.1-9.8,1.5
	c-1.2,0.6-2.2,1.4-3.4,2C926.5,392.5,924.1,393.5,921.8,393.4z"/>
<path class="st4" d="M881.6,404.4l-3.9,5.3c-0.4,0.4-0.7,0.9-0.9,1.5c-0.6,1.4-0.3,3-0.6,4.5c-0.2,0.9-0.6,1.8-1.2,2.7
	c-1.5,2.6-3.2,5.1-5,7.5c-0.9,1.2-1.9,2.2-3.1,3.1c-1.2,0.8-2.8,1.1-4.2,0.7c0.6,0.2,1.1,0.7,1.4,1.2c1.4,3.1,1.8,6.5,1,9.8
	c-0.2,1.1-0.6,2.2-1.1,3.2c-0.6,1-1.4,1.8-2.5,2.2c0.3,2,2.1,3.4,4.2,3.2c0.1,0,0.1,0,0.2,0c0.8-0.2,1.5-0.6,2.2-1.1l6.3-4.1
	c1.1-0.6,2.1-1.4,3-2.2c1.2-1.2,2-2.7,3.2-3.9c2-2.1,4.8-3.3,6.2-5.8c0.9-1.6,1-3.4,1.5-5.1c0.3-1.1,0.9-2.2,1.2-3.3
	c0.9-3.6,0.4-7.3-1.3-10.5C886.5,409.7,884,407.2,881.6,404.4z"/>
<path class="st2" d="M896.5,356.3c1.5-2.4,3.5-4.5,5.9-6.1c3.1-2.3,6.7-4.3,10.6-4.5c1.6-0.1,3.2,0.2,4.8,0.8
	c0.1-4.7,1.2-7.8,4.2-7.4c5.5,0.9,11.6,3,13.7,8.1c1.6,3.9,0.4,8.3,0,12.4c-0.2,1.1-0.1,2.2,0.1,3.3c0.6,1.7,1.6,3.3,2.9,4.5
	c1.7,1.7,3.1,3.7,4.2,5.9c1.1,2.2,1.2,4.7,0.3,7c-0.3,0.6-0.6,1.2-0.7,1.8c-0.1,1.4,1.4,2.3,2.5,3.2c4.1,3.4,3.9,9.6,4,15
	c0.1,10.9,2.5,21.7,7.2,31.6c-3.6,1.8-7.8,1.2-10.8-1.4c0.6,2.4,1.4,4.8,2.5,7.1c-3.5,1.7-7.7-1.1-9.4-4.5s-2-7.5-3.2-11.1
	s-3.5-6.9-4.5-10.6c-0.2-1.2-0.6-2.4-1.2-3.5c-0.6-0.7-1.4-1.4-2.2-1.9c-3.6-2.6,1.7-22.1,0.3-26.3c-2.1,0.5-5.9-9.6-8.1-19.9
	c-1.5,0.5-3.2,0.7-4.8,0.5c-0.6-0.1-1.1-0.2-1.7-0.1c-0.5,0.1-1,0.3-1.5,0.6c-1.6,1-3.3,1.9-5,2.6c-3.6,1.3-7.6,1.2-11.5,1
	C894.4,361.7,895,358.7,896.5,356.3z"/>
<path class="st3" d="M896.5,356.3c1.5-2.4,3.5-4.5,5.9-6.1c3.1-2.3,6.7-4.3,10.6-4.5c1.6-0.1,3.2,0.2,4.8,0.8
	c0.1-4.7,1.2-7.8,4.2-7.4c5.5,0.9,11.6,3,13.7,8.1c1.6,3.9,0.4,8.3,0,12.4c-0.2,1.1-0.1,2.2,0.1,3.3c0.6,1.7,1.6,3.3,2.9,4.5
	c1.7,1.7,3.1,3.7,4.2,5.9c1.1,2.2,1.2,4.7,0.3,7c-0.3,0.6-0.6,1.2-0.7,1.8c-0.1,1.4,1.4,2.3,2.5,3.2c4.1,3.4,3.9,9.6,4,15
	c0.1,10.9,2.5,21.7,7.2,31.6c-3.6,1.8-7.8,1.2-10.8-1.4c0.6,2.4,1.4,4.8,2.5,7.1c-3.5,1.7-7.7-1.1-9.4-4.5s-2-7.5-3.2-11.1
	s-3.5-6.9-4.5-10.6c-0.2-1.2-0.6-2.4-1.2-3.5c-0.6-0.7-1.4-1.4-2.2-1.9c-3.6-2.6,1.7-22.1,0.3-26.3c-2.1,0.5-5.9-9.6-8.1-19.9
	c-1.5,0.5-3.2,0.7-4.8,0.5c-0.6-0.1-1.1-0.2-1.7-0.1c-0.5,0.1-1,0.3-1.5,0.6c-1.6,1-3.3,1.9-5,2.6c-3.6,1.3-7.6,1.2-11.5,1
	C894.4,361.7,895,358.7,896.5,356.3z"/>
<g class="st8">
	<path d="M954,432.1c-4.6-9.9-7.1-20.7-7.2-31.6c0-5.4,0.2-11.6-4-15c-1.1-0.9-2.6-1.8-2.5-3.2c0.1-0.7,0.3-1.3,0.7-1.8
		c0.9-2.3,0.8-4.8-0.3-7c-1.1-2.1-2.5-4.1-4.2-5.8c-1.3-1.3-2.3-2.8-2.9-4.5c-0.2-1.1-0.3-2.2-0.1-3.3c0.4-4.2,1.6-8.5,0-12.4
		c-2-5-7.8-7.1-13.2-8c0.5-0.1,1-0.2,1.4-0.1c5.5,0.9,11.6,3,13.7,8.1c1.6,3.9,0.4,8.3,0,12.4c-0.2,1.1-0.1,2.2,0.1,3.3
		c0.6,1.7,1.6,3.3,2.9,4.5c1.7,1.7,3.1,3.7,4.2,5.9c1.1,2.2,1.2,4.7,0.3,7c-0.3,0.6-0.6,1.2-0.7,1.8c-0.1,1.4,1.4,2.3,2.5,3.2
		c4.1,3.4,3.9,9.6,4,15c0.1,10.9,2.5,21.7,7.2,31.6c-1.6,0.8-3.5,1.2-5.3,1C951.9,433,953,432.6,954,432.1z"/>
	<path d="M945.7,437.8c-1.1-2.3-1.9-4.6-2.5-7.1c0.7,0.6,1.5,1.2,2.4,1.6c0.5,1.9,1.2,3.7,2,5.5c-1,0.5-2.1,0.6-3.2,0.4
		C944.8,438.1,945.3,438,945.7,437.8z"/>
	<path d="M915.8,346.5c-1-0.4-2.1-0.7-3.2-0.8h0.4c0.9,0,1.9,0,2.8,0.2C915.8,346.1,915.8,346.3,915.8,346.5z"/>
	<path d="M904.4,363.5c1.8-0.7,3.4-1.6,5.1-2.6c0.5-0.3,1-0.5,1.5-0.6c0.5,0,1,0,1.6,0.1c-0.4,0.1-0.7,0.3-1.1,0.5
		c-1.6,1-3.3,1.9-5,2.6c-2.7,0.9-5.6,1.3-8.5,1.1C900.1,364.6,902.3,364.2,904.4,363.5z"/>
	<path d="M917.4,359.9l0.1,0.5c-0.8,0.1-1.7,0.2-2.5,0.1C915.8,360.3,916.6,360.2,917.4,359.9z"/>
</g>
<path class="st5" d="M952.1,437.3c-0.2,1.8,0.4,3.6,1.6,4.9c0.7,0.7,1.5,1.2,2.3,1.7c0.8,0.5,1.8,0.9,2.8,1c1.3,0,2.6-0.6,3.5-1.5
	c2.9-2.5,4.4-6.3,5.7-10c1.9-4.7,3.4-9.7,4.3-14.7c0.8-5.4,0.5-11.1,2-16.3c-1.4-2.8-2.3-5.8-3.8-8.5c-1-1.6-1.9-3.2-2.6-5
	c-1.5-3.6-1.6-7.7-0.5-11.4c-0.6-0.4-1.3-0.3-1.8,0.1c-0.5,0.4-0.9,1-1.1,1.6c-0.9,2.1-1.3,4.4-1.1,6.7c0.1,0.6,0,1.1-0.2,1.6
	c-0.4,0.5-1.1,0.8-1.8,0.8c-1.4-0.1-2.8-0.3-4.1-0.7c-4.1-1.1-8.4-1.4-12.7-1c-0.9,0-1.7,0.2-2.5,0.6c-0.8,0.4-1.3,1.2-1.3,2.1
	l10.1,1.5c0.8,0,1.5,0.3,2.1,0.7c0.6,0.5,0.8,1.4,0.3,2c-0.2,0.2-0.5,0.3-0.7,0.5c-0.9,0.7-1.1,2-0.3,2.9c0.1,0.2,0.3,0.3,0.4,0.4
	c0.3,0.1,0.5,0.3,0.7,0.5c0.4,0.6-0.1,1.3-0.3,2c-0.2,1,0.3,2,1.2,2.5c0.9,0.5,1.8,0.8,2.8,1c2,0.5,3.9,1.1,5.8,2
	c0.6,0.2,1.1,0.6,1.5,1.1c0.4,0.9,0.3,2-0.2,2.8l-2.6,7.1c-0.4,1.1-0.8,2.2-1.3,3.3c-0.7,1.4-1.5,2.7-2.2,4.1
	c-0.6,1.3-1.2,2.6-1.7,4C955.2,431.3,952.6,433.5,952.1,437.3z"/>
<path class="st9" d="M515.4,162.1v335.4c-11.2-3.6-22.9-5.4-34.6-5.3c-49.9,0-90.4,35.3-90.4,85.2s40.5,84.8,90.4,84.8
	s90.6-36.7,90.6-90V339.1h263v158.3c-11.2-3.6-22.9-5.4-34.6-5.3c-49.9,0-90.4,35.3-90.4,85.2s40.5,84.8,90.4,84.8
	s90.6-36.7,90.6-90v-410L515.4,162.1z M834.4,287.1h-263v-69h263V287.1z"/>
<path class="st9" d="M249.4,125.1v225.1c-40.7-23.5-92.8-9.5-116.3,31.2s-9.5,92.8,31.2,116.3s92.8,9.5,116.3-31.2
	c7.5-13,11.4-27.7,11.4-42.7V210.4h85.4v-85.3H249.4z"/>
<path class="st10" d="M226.6,652.6c-4.9-2.6-10.2-4.5-15.6-5.5c4-0.5,7.9-1.4,11.7-2.6c10.2-3.2,15.3-7.5,11.5-9.7s-15.2-1.2-25.4,2
	c-3.4,1-6.7,2.4-9.8,4.3c-1.1-2.2-3.9-4.8-8.4-7.3c-9-5-21.2-7.5-27.1-5.6s-3.4,7.4,5.6,12.4c4.4,2.4,9.1,4.1,14,5.2
	c-3.2,0.4-6.5,0.9-9.6,1.7c-11.1,2.7-17.5,6.7-14.3,9c3.2,2.3,14.7,2,25.8-0.6c4-0.9,7.9-2.2,11.6-4.1c0.9,2.3,3.8,5,8.5,7.6
	c9,5,21.2,7.5,27.1,5.6S235.6,657.6,226.6,652.6z"/>
<path class="st10" d="M290.3,579.5c-2.4-1.3-4.9-2.2-7.6-2.7c1.9-0.3,3.8-0.7,5.7-1.3c4.9-1.6,7.4-3.7,5.6-4.7s-7.4-0.6-12.3,1
	c-1.7,0.5-3.3,1.2-4.7,2.1c-0.5-1.1-1.9-2.3-4.1-3.5c-4.4-2.4-10.3-3.6-13.2-2.7s-1.7,3.6,2.7,6c2.1,1.2,4.4,2,6.8,2.5
	c-1.6,0.2-3.1,0.5-4.7,0.8c-5.4,1.3-8.5,3.2-6.9,4.3s7.1,1,12.5-0.3c2-0.4,3.9-1.1,5.6-2c0.4,1.1,1.9,2.4,4.1,3.7
	c4.4,2.4,10.3,3.6,13.2,2.7S294.7,582,290.3,579.5z"/>
<path class="st10" d="M118.9,505.5c-1.5-0.8-3.1-1.4-4.8-1.7c1.2-0.2,2.4-0.4,3.6-0.8c3.1-1,4.6-2.3,3.5-2.9s-4.6-0.4-7.7,0.6
	c-1.1,0.3-2.1,0.7-3,1.3c-0.6-1-1.5-1.7-2.5-2.2c-2.7-1.5-6.4-2.3-8.2-1.7s-1,2.2,1.7,3.8c1.3,0.7,2.8,1.3,4.3,1.6
	c-1,0.1-2,0.3-2.9,0.5c-3.4,0.8-5.3,2-4.4,2.7s4.5,0.6,7.8-0.2c1.2-0.3,2.4-0.7,3.5-1.2c0.6,1,1.5,1.8,2.6,2.3
	c2.8,1.5,6.4,2.3,8.2,1.7S121.7,507,118.9,505.5z"/>
<path class="st11" d="M364.4,125.1v71.3H279v213.4c0,47.1-38.1,85.3-85.2,85.3c-19.2,0-37.9-6.5-52.9-18.4
	c29.2,37,82.8,43.2,119.8,14c20.5-16.2,32.4-40.8,32.4-66.9V210.4h85.4v-85.3H364.4z"/>
<path class="st12" d="M123.5,143.6l0.3,2.2l9.5,1.3c0,0,0.8-0.6,2-1.4c2.2-1.5,6-3.7,9.2-4.3c5-1,20.7-8.1,15.6-8.5
	s-4.5,0.6-4.5,0.6s-5.6-5.5-11.4-0.5c-4.4,3.8-14,7.9-18.4,9.7C124.3,143.3,123.5,143.6,123.5,143.6z"/>
<path class="st3" d="M161.2,118.5c1.4-0.6,3-1,4.5-1.2c1.6-0.2,3.1,0.4,4.3,1.4c0.6,0.6,1,1.4,1.6,2.1c2.9,3.1,8.5,0.8,11.9,3.2
	c2.1,1.5,2.8,4.3,3.5,6.8s2.1,5.2,4.7,5.8c1.2,0.1,2.5,0.1,3.7-0.1c1.2-0.2,2.5,0.3,3.3,1.2c1.2,1.8-0.4,4.8,1.3,6.1
	c1.5,1.1,4.3-0.4,5.4,1.1c0.4,0.9,0.3,1.9-0.4,2.6c-0.6,0.7-1.2,1.4-1.7,2.2c-0.8,1.6-0.2,3.6,1.4,4.5c0.6,0.3,1.2,0.4,1.9,0.4
	c1.1-0.1,2.2-0.7,3.2-0.2c0.6,0.4,1,1.1,1,1.8c0.1,2.5-1.7,4.6-4.2,4.9c-1.8,0.1-3.5-0.9-5.2-1.7c-1.6-0.8-3.6-1.6-5.3-0.9
	c-0.8,0.4-1.5,0.9-2.1,1.5c-1.9,1.6-4.1,2.9-6.5,3.9c-2.1,0.8-4.5,1.3-6.5,0.3c-2.2-1.1-3.4-3.9-5.8-4.8c-2.4-0.9-5.1,0.7-7.4,2.1
	s-5.3,2.5-7.4,0.8c-2.2-1.8-1.5-5.4-2.9-7.9c-0.5-0.9-1.3-1.8-2.2-2.4c-1.5-1.2-3.2-2.1-4.8-3.2c-1.6-1.1-2.8-2.7-3.3-4.6
	c-0.5-2.3,0.6-4.5,1.9-6.5c1.2-2,2.7-3.9,3.1-6.1c0.3-1.7,0-3.5,0.4-5.1c0.6-2,2.1-3.7,4.1-4.4c1.1-0.4,1.3-0.3,1.9-1.3
	C159.2,119.6,160.1,118.8,161.2,118.5z"/>
<g class="st8">
	<path d="M199.1,138.3c0.2,1,0.3,2,0.2,3C199,140.3,199,139.3,199.1,138.3z"/>
	<path d="M203.4,149.8c-0.2,0.3-0.3,0.7-0.3,1.1c-0.4-0.9-0.3-1.9,0.1-2.8c0.5-0.8,1.1-1.5,1.7-2.2c0.2-0.3,0.4-0.6,0.5-1l0.1,0.1
		c0.4,0.9,0.3,1.9-0.4,2.6C204.5,148.3,203.9,149,203.4,149.8z"/>
	<path d="M150.4,147.1c1.5,1.2,3.2,2,4.8,3.2c0.9,0.6,1.6,1.4,2.2,2.4c1.4,2.5,0.7,6.1,2.9,7.9c2.1,1.7,5.1,0.5,7.4-0.8
		s4.9-3,7.4-2.1s3.5,3.6,5.8,4.8c2,1,4.4,0.5,6.5-0.3c2.4-0.9,4.6-2.2,6.5-3.9c0.6-0.6,1.3-1.1,2.1-1.5c1.7-0.7,3.6,0,5.3,0.9
		c1.6,0.9,3.3,1.8,5.2,1.7c2.2-0.2,3.9-1.9,4.1-4.1c0.1,0.3,0.2,0.6,0.2,0.9c0.2,2.5-1.7,4.7-4.1,4.9c-1.8,0.1-3.5-0.9-5.2-1.7
		s-3.6-1.6-5.3-0.9c-0.8,0.4-1.5,0.9-2.1,1.5c-1.9,1.6-4.1,2.9-6.5,3.9c-2.1,0.8-4.5,1.3-6.5,0.3c-2.3-1.1-3.4-3.9-5.8-4.8
		c-2.4-0.9-5.1,0.7-7.4,2.1s-5.3,2.5-7.4,0.8c-2.2-1.8-1.5-5.4-2.9-7.9c-0.5-0.9-1.3-1.7-2.2-2.4c-1.5-1.2-3.2-2.1-4.8-3.2
		c-1.6-1.1-2.8-2.7-3.3-4.6c-0.1-0.4-0.1-0.8-0.1-1.2C147.9,144.7,149,146.1,150.4,147.1z"/>
</g>
<path class="st13" d="M154.5,199l-3.4,0.7c0,0,3.4,5.6,8.6,1.9S154.5,199,154.5,199z"/>
<path class="st11" d="M154.5,199l-3.4,0.7c0,0,3.4,5.6,8.6,1.9S154.5,199,154.5,199z"/>
<path class="st12" d="M228.9,250.8c0,0,4.8,2.5,9.2,5.3c3.2,2,6.2,4.3,7.2,5.9c2.4,4,13.8,8.3,13.8,8.3l11.4,8.7
	c2.7,0.9,5.3,4.2,6.4,5.6c0.3,0.4,0.5,0.7,0.5,0.7l4.6-0.6l2.4-3.1c0,0,0.6-6.9-4.1-6.8c-0.9,0-1.8-0.3-2.7-0.7
	c-5.1-2.2-12.2-9.3-12.2-9.3s-12.1-15.1-15.8-15.6c-0.4-0.1-0.8-0.2-1.1-0.3c-3.7-1.3-9-6-9-6L228.9,250.8z"/>
<path class="st12" d="M181.9,294.6c1.2,7.3,6.7,21.2,8.5,24.1c2.2,3.6,3.4,10.8,3.4,10.8l0.6,5c0.1,0.7,0.4,1.3,0.7,1.9
	c0.2,0.3,0.4,0.7,0.6,1l9.1-2.8c0,0-0.5-2.1-1.3-4.5c-0.8-2.4-2-5.4-3.1-6.6c-2.2-2.2-2.6-9.9-2.6-9.9s-1.9-14.9-2.4-16.7
	c-0.5-1.8-0.9-3.6-1-5.5c-0.1-1-0.1-2.1-0.2-3.4c-0.2-3.7-0.7-7.4-1.4-11l-10.6,1.9l-0.3,11.9C181.6,292,181.6,293.3,181.9,294.6z"
	/>
<path class="st11" d="M276.9,284.7c0.3,0.4,0.5,0.7,0.5,0.7l4.6-0.6l2.4-3.1c0,0,0.6-6.9-4.1-6.8c-0.9,0-1.8-0.3-2.7-0.7
	c-0.4,2.1,1.9,3.8,1.9,3.8s1,0.7,0.7,3.9C280,284.1,278.1,284.5,276.9,284.7z"/>
<path class="st14" d="M276.4,285.1c0.3,1.1,3.2,2.7,5.2,3.8c1,0.5,1.8,0.8,1.9,0.9c0.5,0.2,2.9-2.5,3.2-4.6c0.3-2.2,6.1-8.9,6.1-8.9
	c1.2-2.7,1.9-5.5,2.1-8.5c0.2-3-1-3.2-2.5-2.5c-1,0.5-2,1.3-2.7,2.1c-1,0.9-2.2,1.6-3.5,1.8c-1.8,0.4-3.5,1.2-5.1,2.2
	c-1.4,0.9-2.8,2-3,3c-0.5,2.1,1.9,3.9,1.9,3.9s1,0.7,0.7,3.9S276.3,285,276.4,285.1z"/>
<path class="st11" d="M281.5,288.8c1,0.5,1.8,0.8,1.9,0.9c0.5,0.2,2.9-2.5,3.2-4.6c0.3-2.2,6.1-8.9,6.1-8.9c1.2-2.7,1.9-5.5,2.1-8.5
	c0.2-3-1-3.2-2.5-2.5c-0.2,2.3-0.8,6.9-2,9.3C289,277.3,283.1,286.4,281.5,288.8z"/>
<path class="st11" d="M195.2,336.2l-0.1,0.2c0.2,0.3,0.4,0.7,0.6,1l9.1-2.8c0,0-0.5-2.1-1.3-4.5c-3.6-1-8.8,5.3-8.8,5.3L195.2,336.2
	z"/>
<path class="st14" d="M194.6,343c0,0,7.6,2.7,11,2.3c2.6-0.3,2.7-1.5,2.5-4c-0.1-0.8-0.1-1.7-0.2-2.8c-0.2-4.4-1.9-5.3-1.9-5.3
	c-2.9-7.6-11.2,2.6-11.2,2.6l0.4,0.8c-0.6,1.3-0.9,2.7-0.9,4.2C194.4,341.5,194.4,342.2,194.6,343z"/>
<path class="st11" d="M194.6,343c0,0,7.6,2.7,11,2.3c2.6-0.3,2.7-1.5,2.5-4c-1.7,1.4-4,2.1-6.2,1.8c-2.6-0.3-5.2-1.1-7.6-2.3
	C194.4,341.5,194.4,342.2,194.6,343z"/>
<path class="st12" d="M156.8,158.1l3,13l0.6,2.7l5.5,0.7l5.7,0.7l6.2-2.2c0,0,1.7-5.9,0.3-10.3c-0.4-1.6-1.5-2.9-2.9-3.8
	c-0.4-0.3-0.8-0.6-1.2-0.9c-0.4-0.4-0.7-0.9-1-1.4c-0.3-0.7-0.5-1.4-0.5-2.1c-0.3-3.5,1.9-7.4,1.9-7.4s-13.1-4.5-12.1-1.6
	c0.7,1.9-1.2,5.1-2.6,7.2c-0.8,1.1-1.4,1.9-1.4,1.9L156.8,158.1z"/>
<circle class="st11" cx="168.6" cy="141.8" r="11.4"/>
<circle class="st12" cx="168.6" cy="141.3" r="11.4"/>
<path class="st4" d="M157.6,201.4c0.5,2.5,3,6.5,3,6.5l15.9,3.9l11.3-11.9v-0.1c-0.4-1.1-4.7-15.1-1.5-18.6c3.3-3.6,2-13.7,2-13.7
	s-5.7-6.5-6.8-8.1c-1.2-1.6-8.5-2.8-8.5-2.8c0.4,0.5,0.7,1,1,1.4c0.8,1.2,1.4,2.5,1.8,3.8c0.5,1.4,0.4,2.8-0.1,4.2
	c-0.2,0.3-0.3,0.7-0.4,1.1c-1.2,5.4-6.9,4.7-9.1,4.1c-0.6-0.1-0.9-0.3-0.9-0.3l-5.4,0.2l-3.4,0.1c0,0,1.5,26.8,1.2,28.9
	C157.5,200.6,157.5,201,157.6,201.4z"/>
<path class="st15" d="M156.5,172.6l9.9-1.3h-0.2c-0.6-0.1-0.9-0.3-0.9-0.3l-5.4,0.2l-3.4,0.1C156.4,171.4,156.4,171.8,156.5,172.6z"
	/>
<polygon class="st15" points="167.5,209.6 171.8,210.6 178.5,209.7 180.3,207.9 "/>
<polygon class="st15" points="174.6,211.3 176.6,211.8 177.4,211 "/>
<path class="st11" d="M157.6,201.4c2.5,0.3,4.9,0.4,4.9,0.4l13.1-0.5v-13.7c-1.6-1.4-3.3-2.6-5.3-3.5c-2.3-0.8-5-3.2-4.5-9.6
	c0-0.4,0.1-0.8,0.1-1.1c0.1-0.7,0.1-1.4,0.1-2.1c0-3.2-1.3-6.2-3.6-8.4c-0.1-0.1-0.1-0.1-0.2-0.2l-2.1-9.9c-0.1,0-0.3,0-0.4,0.1
	c-0.8,1.1-1.4,1.9-1.4,1.9l-1.6,3.4l3,13l-3.4,0.1c0,0,1.5,26.8,1.2,28.9C157.5,200.6,157.6,201,157.6,201.4z"/>
<path class="st14" d="M162.1,201.9l13.1-0.5v-13.7c-1.6-1.4-3.3-2.6-5.3-3.5c-2.4-0.8-5.3-3.5-4.4-10.7c0.7-3.9-0.6-7.9-3.5-10.6
	l-0.2-0.2l-2.1-9.9c-1.4,0.1-2.6,0.8-3.4,1.9c-0.2,0.4-0.5,0.8-0.8,1.2c-0.5,0.9-1.7,1.3-2.6,0.8c-1.4-0.6-7.3-3.1-8.6-0.7
	s-1.6,17.1-1.6,17.1c2,1.6,3.3,3.8,3.9,6.3c0.9,4.2,2.4,4.3,2.4,4.3l1.6,12c0,0,1.5,2.6,0.4,4"/>
<path class="st14" d="M155.6,155.9l2.2,6.7l4.3,0.4l-0.2-0.2l-2.1-9.9c-1.4,0.1-2.6,0.8-3.4,1.9
	C156.2,155.2,155.9,155.5,155.6,155.9z"/>
<path class="st11" d="M123.5,143.6l0.3,2.2l9.5,1.3c0,0,0.8-0.6,2-1.4c-1-0.2-5.7-1.2-8.2-2c-0.9-0.3-1.5-0.5-1.5-0.7
	s0.1-0.2,0.2-0.3C124.3,143.3,123.5,143.6,123.5,143.6z"/>
<path class="st14" d="M112.4,157.7c0,0,10.7,8.1,17.3,9.4c0,0,9.3,2.8,13,6l4-15.4l-2.4-1.7c0,0-2.9,1.8-5.5,1.2
	c-2.5-0.6-5.3-1-5.3-1c-2.2-0.8-4.5-1.4-6.8-1.9c-1.8-0.1-1.1-2.5,0.7-3.7c0.2-0.2,0.5-0.3,0.7-0.4c0.7,1,2,1.2,3,0.7
	c0.7-0.4,1.3-1,1.8-1.6l0,0c0.7-0.9,1.4-1.9,2-3c0,0-5.6-1.2-8.4-2.1c-0.9-0.3-1.5-0.5-1.5-0.7c-0.1-0.6,5-2.7,5-2.7
	s-4.3-2.1-6.1-0.6c0,0,1.1,0.9,0.2,1.7s-12,9.4-12,9.4S106.7,154,112.4,157.7z"/>
<path class="st11" d="M121.6,149.8l5.9,0.9c0.2-0.2,0.5-0.3,0.8-0.4c0.7,1,2,1.2,3,0.7c0.7-0.4,1.3-1,1.8-1.6l0,0
	c0.6-0.8,1.1-1.7,1.6-2.5c0,0-5.6-1.2-8.4-2.1L121.6,149.8z"/>
<path class="st14" d="M121.9,149.3l6.3,0.9c0.7,1,2,1.2,3,0.7c1.8-1,3.8-4.7,3.8-4.7s-5.6-1.2-8.4-2.1L121.9,149.3z"/>
<path class="st11" d="M239.4,242.9l-10.5,8c0,0,4.8,2.5,9.2,5.3c3.9-2.6,7.5-5,10.3-7.2C244.7,247.6,239.4,242.9,239.4,242.9z"/>
<path class="st11" d="M181.9,294.6c2.6-0.3,5.2-0.9,7.7-1.8c0,0,1.9-0.4,4.8-1.4c-0.1-1-0.1-2.1-0.2-3.4c-0.2-3.7-0.7-7.4-1.4-11
	l-10.6,1.9l-0.3,11.9C181.6,292,181.6,293.3,181.9,294.6z"/>
<path class="st14" d="M162.9,246.2c2.1,3.2,8,16.7,8,16.7c1.3,2.4,2.8,4.7,4.5,6.9c2.3,2.9,3.9,9.5,5.7,14.8c1.8,5.3-0.5,4.3-0.3,7
	c0.2,2.7,10.3-0.8,10.3-0.8s20.5-4.5,26.7-17s31.2-23.8,36.3-30.8s-1.4-4.1-1.2-7.9s-2.6-7-2.6-7s-9.4-2.7-11-4.5s-9-6.5-9-6.5
	s-7.1-3.1-8-4.1s-9.3-4.4-11.9-5s-5.1-4.3-5.1-4.3s-1.6,0.2-3.9-2.1s-12.2-4.2-12.2-4.2c-16.8,12.4-28.5,10.7-28.5,10.7l-0.3,2.3
	C151.4,221.9,160.8,243.1,162.9,246.2z"/>
<path class="st11" d="M160.4,210.2c0,0,14.6,4.8,28.7-12.9c-16.8,12.3-28.5,10.6-28.5,10.6L160.4,210.2z"/>
<path class="st11" d="M185.4,218.5c0,0,19.5,28.2,20.8,29.2S186.5,218.1,185.4,218.5z"/>
<path class="st11" d="M176.4,216.3c0,0,13.5,21,13.3,23.8C189.7,240.2,176.6,220,176.4,216.3z"/>
<path class="st11" d="M168.5,222.1c0,0,2.5,11.8-1.3,18.4L168.5,222.1z"/>
<path class="st11" d="M163.3,222.8c0,0-0.2,10.2-1.3,12.3L163.3,222.8z"/>
<polygon class="st11" points="196.5,213.7 214.4,220.7 207.9,221.6 "/>
<path class="st11" d="M161.1,135c0.9,0.6,1.6,1.6,2.7,1.7c0.8,0,1.5-0.2,2.2-0.5c1.8-0.8,3.8-1.4,5.7-0.8c2.6,0.9,4.1,3.9,6.7,4.8
	c0.8,0.3,1.7,0.3,2.5,0.1c0.5-0.1,1-0.3,1.4-0.6c1-0.6,1.7-1.7,2-2.8c0.4-2.1-0.4-4.2-2-5.5c-1.6-1.3-3.5-2.2-5.6-2.5
	c-5.3-1.2-10.8-0.8-16.2-0.4c-0.4,0-0.9,0.1-1.3,0.3c-0.8,0.6-2.2,3.7-1.9,4.7C157.8,134.9,160.9,133.9,161.1,135z"/>
<path class="st3" d="M161,134.6c0.9,0.6,1.6,1.6,2.7,1.7c0.8,0,1.5-0.2,2.2-0.6c1.8-0.8,3.8-1.4,5.7-0.8c2.6,0.9,4.1,3.9,6.7,4.8
	c0.8,0.3,1.7,0.3,2.5,0.1c0.5-0.1,1-0.3,1.4-0.6c1-0.6,1.8-1.7,2.1-2.8c0.4-2.1-0.4-4.2-2.1-5.6c-1.6-1.3-3.5-2.2-5.6-2.5
	c-5.3-1.2-10.8-0.8-16.2-0.4c-0.4,0-0.9,0.1-1.3,0.3c-0.8,0.6-2.2,3.7-1.9,4.7C157.8,134.5,160.9,133.4,161,134.6z"/>
<path class="st12" d="M230.6,143l1.7,6.9l2.2-1.4l12.1-7.3c0,0,9.2-0.3,9.9-7.7s-10.2-0.1-10.8,0.5s-1.9,1.6-1.9,1.6l-11.3,6.3
	L230.6,143z"/>
<path class="st11" d="M230.6,143l1.7,6.9l2.2-1.4c-0.5-3.1-1.3-6-2-6.7L230.6,143z"/>
<path class="st11" d="M170.8,188.4l2.5,14.5l14.6-3c-0.4-1.1-4.7-15.1-1.5-18.6c3.3-3.6,2-13.7,2-13.7s-5.7-6.5-6.8-8.1
	c-1.2-1.6-8.5-2.8-8.5-2.8c-0.3-0.7-0.5-1.4-0.5-2.1c-0.2,0.5-0.4,1-0.6,1.6c0,2.6,1.1,4.5,3.9,5.8c0.2,0.1,0.5,0.2,0.8,0.3
	c0.4,0.2,0.9,0.4,1.4,0.5l0.2,0.1c4.7,1.4,5.7,4.2,5.7,4.2c1.6,2.2,2.4,4.9,2.1,7.6C185.7,179.1,170.8,188.4,170.8,188.4z"/>
<path class="st14" d="M171.6,188.3l2.5,14.5l16.5-3.4c0,0-0.5-5.5-1.6-7.7s-0.9-10.9-0.9-10.9c7-7.5,3.3-13.7,3.3-13.7
	s20.6-3.3,20.9-4s7.2-4.3,7.2-4.3s7.5-1.9,8.5-3c0.4-0.4,0.8-0.8,1.2-1.1c0.1-0.1,0.3-0.2,0.4-0.3l0.5,4.8h0.2
	c1.2-0.1,2.3-0.6,3.2-1.3c1.7-1.3-0.5-15.6-2.1-16.1c-0.3-0.1-0.6-0.1-1,0c-1.3,0.4-2.5,1.1-3.5,1.9l-0.3,0.2l-0.1,0.1
	c0,0-9.3,3.6-11.2,5.3s-16.3,3.8-16.3,3.8s-6.5,1.5-7.3,0.6s-10.8-2.4-11.6-1c-0.8,1.4-3.1,1.2-3.1,1.2c-1.6-1.9-2.8-1.1-3.5-0.1
	c-0.4,0.6-0.7,1.4-0.9,2.1c0,2.9,1.3,4.8,4.7,6.1c0.5,0.2,1.1,0.4,1.7,0.6c4.7,1.4,5.7,4.2,5.7,4.2c1.7,2.2,2.4,4.9,2.1,7.6
	C186.5,179,171.6,188.3,171.6,188.3z"/>
<path class="st11" d="M230.6,141.9c0.2,0,0.4,0,0.5,0.1c1.6,0.5,3.8,14.8,2.1,16.1c-0.9,0.6-1.8,1.1-2.9,1.2h-0.2l-0.5-4.8
	c-0.1,0.1-0.3,0.2-0.4,0.3v-0.2c0.9-3.7,0-7.6-2.4-10.6L230.6,141.9z"/>
<path class="st14" d="M229.5,154.5l0.5,4.8c1.3-0.1,2.5-0.6,3.5-1.4c1.7-1.3-0.5-15.6-2.1-16.1c-1.3-0.4-3.6,1.2-4.5,1.9
	C229.5,146.7,230.4,150.7,229.5,154.5z"/>
<path class="st14" d="M177.5,162.1l2.4-2.2l-6.2-6c-0.4,0.6-0.7,1.4-0.9,2.1C172.8,158.9,174,160.8,177.5,162.1z"/>
<path class="st11" d="M160.9,133.8c0.9,0.6,1.6,1.6,2.7,1.7c0.8,0,1.5-0.2,2.2-0.6c1.8-0.8,3.8-1.4,5.7-0.8c2.6,0.9,4.1,3.9,6.7,4.8
	c0.8,0.3,1.7,0.3,2.5,0.1c1.7-0.4,3.1-1.7,3.5-3.4c0.1-0.4,0.1-0.8,0.1-1.3c0.2,0.7,0.2,1.4,0,2.1c-0.3,1.2-1,2.2-2.1,2.8
	c-0.4,0.3-0.9,0.5-1.4,0.6c-0.8,0.2-1.7,0.1-2.5-0.1c-2.6-0.9-4.1-3.9-6.7-4.8c-1.9-0.6-3.9,0-5.7,0.8c-0.7,0.4-1.4,0.6-2.2,0.6
	c-1.1-0.1-1.8-1.1-2.7-1.7c-0.1-1.2-3.3-0.1-3.7-1.5c0-0.2,0-0.4,0-0.6C158,133.6,160.8,132.7,160.9,133.8z"/>
<path class="st11" d="M170.6,166.5c0,0-1.3,3.7,0.4,4.9c0,0-1.8-4.9-2.9-4.8"/>
<path class="st12" d="M252.1,130.6c0,0-8.5,7.3-2.3,8.5S252.1,130.6,252.1,130.6z"/>
<g class="st8">
	<path d="M821.4,333.1h-263v232.9c0,53.3-40.8,90-90.6,90c-11.9,0-23.7-2-34.8-6.1c14.6,8.1,31.1,12.2,47.8,12.1
		c49.9,0,90.6-36.7,90.6-90V339.1h250V333.1z"/>
	<polygon points="558.4,281 571.4,281 571.4,218 821.4,218 821.4,212 558.4,212 	"/>
	<path d="M877.4,162.1v404c0,53.3-40.8,90-90.6,90c-11.9,0-23.7-2-34.8-6.1c14.6,8.1,31.1,12.2,47.8,12.1c49.9,0,90.6-36.7,90.6-90
		v-410L877.4,162.1z"/>
</g>
<path class="st10" d="M579.8,69.9c6.5,13.3,17,28.5,28.9,22.7s20.8-30.3,14.4-43.7s-21.4-19.4-33.3-13.6S573.4,56.6,579.8,69.9z"/>
<path class="st10" d="M605.4,101c0,0,2.3-0.4,1.4-2.3c-0.1-0.2-0.2-0.3-0.3-0.5c-0.5-0.8-0.8-1.6-0.9-2.5c-0.1-1-0.1-2.1,0.1-3.1
	l-6.3-0.4c0,0,2.5,2.1,2.2,3.2c0,0.2-0.1,0.3-0.3,0.4c-0.1,0.1-0.3,0.2-0.4,0.2l-0.5,0.1c-1.7,0.6-1,1.4-1,1.4
	C599.6,100.3,605.4,101,605.4,101z"/>
<path class="st14" d="M601.3,95.8l4.5,0.6c-0.1-0.2-0.1-0.5-0.1-0.7c-1.1-0.1-2.9-0.2-4.1-0.3C601.5,95.6,601.4,95.7,601.3,95.8z"/>
<path class="st10" d="M605.4,101c0,0,2.3-0.4,1.4-2.3c-0.9,0.2-1.8,0.3-2.8,0.1c-1.5-0.4-2.8-1.4-3.7-2.7c-1.7,0.6-1,1.4-1,1.4
	C599.6,100.3,605.4,101,605.4,101z"/>
<path class="st11" d="M605.4,101c0,0,2.3-0.4,1.4-2.3c-0.9,0.2-1.8,0.3-2.8,0.1c-1.5-0.4-2.8-1.4-3.7-2.7c-1.7,0.6-1,1.4-1,1.4
	C599.6,100.3,605.4,101,605.4,101z"/>
<path class="st16" d="M602,36.7c0,0,7.1-0.9,9.1,3.9c-0.9-0.1-1.7-0.1-2.5,0.2c-0.5,0.2-1.1,0.3-1.7,0.3
	C605.8,39,604.1,37.5,602,36.7z"/>
<path class="st10" d="M609.6,133c0.1-0.1,0.3-0.3,0.4-0.4c0.4-0.5,0.9-0.9,1.5-1.2c0.2-0.1,0.4-0.2,0.6-0.3c0.6-0.3,1.3-0.5,2-0.6
	c0.3-0.1,0.7-0.1,1-0.1l-0.9-4.3V126l-0.4-1.9c-0.3,0.5-0.6,1.1-0.9,1.6c-0.5,0.7-1,1.4-1.6,1.4c-0.2,0-0.3-0.1-0.5-0.2
	c-0.1-0.1-0.2-0.2-0.3-0.4c-0.1-0.2-0.2-0.3-0.3-0.4c-1-1.4-1.6-0.5-1.6-0.5c-1.1,0.4-1.6,1.8-1.8,3.1c0,0.2,0,0.4-0.1,0.6
	c-0.1,1,0,1.9,0.1,2.9C607,132.3,608,134.4,609.6,133z"/>
<path class="st14" d="M611.6,131.4c0.2-0.1,0.4-0.2,0.6-0.3c-0.2-0.9-0.5-2.3-0.7-3.4c0-0.1,0-0.1,0-0.2s0-0.2-0.1-0.3
	c-0.2,0-0.3-0.1-0.5-0.2l0.1,0.7v0.3L611.6,131.4z"/>
<path class="st10" d="M609.6,133c-0.4-0.8-0.7-1.7-0.8-2.6c0-0.6,0-1.1,0.2-1.7c0-0.2,0.1-0.3,0.2-0.5c0.2-0.8,0.7-1.5,1.3-2.1
	c-1-1.4-1.6-0.5-1.6-0.5c-1.1,0.4-1.6,1.8-1.8,3.1c0,0.2,0,0.4-0.1,0.6c-0.1,1,0,1.9,0.1,2.9C607,132.3,608,134.4,609.6,133z"/>
<path class="st11" d="M609.6,133c-0.4-0.8-0.7-1.7-0.8-2.6c0-0.6,0-1.1,0.2-1.7c0-0.2,0.1-0.3,0.2-0.5c0.2-0.8,0.7-1.5,1.3-2.1
	c-1-1.4-1.6-0.5-1.6-0.5c-1.1,0.4-1.6,1.8-1.8,3.1c0,0.2,0,0.4-0.1,0.6c-0.1,1,0,1.9,0.1,2.9C607,132.3,608,134.4,609.6,133z"/>
<path class="st10" d="M566.3,91.9c5.4,3.5,11.6,6.8,17.5,8.6c4.5,1.4,8.9,1.8,12.6,0.7c1.6-0.5,3-1.3,4.3-2.5
	c0.8-0.8,1.6-1.6,2.2-2.6c4.2-6.6,4.2-18.2,0.8-28.3c-2.3-7-6.2-13.2-11.3-16.5c-12.5-8-28.4-5.4-35.6,5.8S553.9,83.9,566.3,91.9z"
	/>
<path class="st11" d="M566.3,91.9c5.4,3.5,11.6,6.8,17.5,8.6c4.5,1.4,8.9,1.8,12.6,0.7c1.6-0.5,3-1.3,4.3-2.5
	c0.8-0.8,1.6-1.6,2.2-2.6c4.2-6.6,4.2-18.2,0.8-28.3c-2.3-7-6.2-13.2-11.3-16.5c-12.5-8-28.4-5.4-35.6,5.8S553.9,83.9,566.3,91.9z"
	/>
<path class="st10" d="M597.5,105.3c1.6,2.2,6.9-0.2,6.9-0.2s1.8-1.5,0-2.7c-0.2-0.1-0.3-0.2-0.5-0.3c-0.6-0.3-1.1-0.7-1.6-1.1
	c-0.2-0.2-0.3-0.3-0.5-0.5c-0.4-0.5-0.8-1.1-1.1-1.8c-0.2-0.3-0.3-0.6-0.4-0.9l-5.6,3c0.6,0.1,1.2,0.2,1.8,0.4
	c0.8,0.3,1.6,0.6,1.8,1.2c0.1,0.2,0.1,0.3,0,0.5c-0.1,0.1-0.2,0.3-0.3,0.4c-0.1,0.1-0.2,0.2-0.3,0.4
	C596.5,104.9,597.5,105.3,597.5,105.3z"/>
<path class="st14" d="M598.2,102.9l4.1-1.8c-0.2-0.2-0.3-0.3-0.5-0.5c-1,0.5-2.6,1.4-3.6,1.9C598.3,102.6,598.3,102.7,598.2,102.9z"
	/>
<path class="st10" d="M597.5,105.3c1.6,2.2,6.9-0.2,6.9-0.2s1.8-1.5,0-2.7c-0.7,0.7-1.4,1.2-2.3,1.5c-1.5,0.5-3.1,0.3-4.5-0.4
	C596.5,104.9,597.5,105.3,597.5,105.3z"/>
<path class="st11" d="M597.5,105.3c1.6,2.2,6.9-0.2,6.9-0.2s1.8-1.5,0-2.7c-0.7,0.7-1.4,1.2-2.3,1.5c-1.5,0.5-3.1,0.3-4.5-0.4
	C596.5,104.9,597.5,105.3,597.5,105.3z"/>
<path class="st16" d="M567.9,52c0,0,5.6-4.4,9.8-1.4c-0.8,0.3-1.5,0.8-2.1,1.5c-0.3,0.5-0.8,0.9-1.3,1.1
	C572.4,52,570.1,51.6,567.9,52z"/>
<g class="st8">
	<path d="M628.2,98.7l-1.3-6.2c-0.3,0.5-0.6,1.1-0.9,1.6c0,1.7,0.5,3.3,1.2,4.8C627.5,98.7,627.8,98.7,628.2,98.7z"/>
	<path d="M622.6,101.3c0.1-0.1,0.3-0.3,0.4-0.4c0.4-0.5,0.9-0.9,1.5-1.2c0.2-0.1,0.4-0.2,0.6-0.3c0.6-0.3,1.3-0.5,2-0.6
		c0.3-0.1,0.7-0.1,1-0.1l-1.3-6.2c-0.3,0.5-0.6,1.1-0.9,1.6c-0.5,0.7-1,1.4-1.6,1.4c-0.2,0-0.3-0.1-0.4-0.2
		c-0.1-0.1-0.2-0.2-0.3-0.3c-0.1-0.2-0.2-0.3-0.3-0.4c-1-1.4-1.6-0.5-1.6-0.5c-2.6,0.9-1.7,6.6-1.7,6.6S621,102.7,622.6,101.3z"/>
	<path d="M624.5,99.7c0.2-0.1,0.4-0.2,0.6-0.3c-0.3-1.1-0.6-2.9-0.8-4c-0.2,0-0.3-0.1-0.4-0.2L624.5,99.7z"/>
	<path d="M622.6,101.3c-0.4-0.8-0.7-1.7-0.8-2.6c0-1.6,0.5-3.1,1.6-4.2c-1-1.4-1.6-0.5-1.6-0.5c-2.6,0.9-1.7,6.6-1.7,6.6
		S621,102.7,622.6,101.3z"/>
	<path class="st11" d="M622.6,101.3c-0.4-0.8-0.7-1.7-0.8-2.6c0-1.6,0.5-3.1,1.6-4.2c-1-1.4-1.6-0.5-1.6-0.5
		c-2.6,0.9-1.7,6.6-1.7,6.6S621,102.7,622.6,101.3z"/>
</g>
<path class="st10" d="M621.8,100.1c0.1-0.1,0.3-0.3,0.4-0.4c0.4-0.5,0.9-0.9,1.5-1.2c0.2-0.1,0.4-0.2,0.6-0.3c0.6-0.3,1.3-0.5,2-0.6
	c0.3-0.1,0.7-0.1,1-0.1l-1.3-6.2c-0.3,0.5-0.6,1.1-0.9,1.6c-0.5,0.7-1,1.4-1.6,1.4c-0.2,0-0.3-0.1-0.4-0.2c-0.1-0.1-0.2-0.2-0.3-0.4
	c-0.1-0.2-0.2-0.3-0.3-0.4c-1-1.4-1.6-0.5-1.6-0.5c-2.6,0.9-1.7,6.6-1.7,6.6S620.2,101.4,621.8,100.1z"/>
<path class="st14" d="M623.7,98.5c0.2-0.1,0.4-0.2,0.6-0.3c-0.3-1.1-0.6-2.9-0.8-4c-0.2,0-0.3-0.1-0.4-0.2L623.7,98.5z"/>
<path class="st10" d="M621.8,100.1c-0.4-0.8-0.7-1.7-0.8-2.6c0-1.6,0.6-3.1,1.7-4.2c-1-1.4-1.6-0.5-1.6-0.5
	c-2.6,0.9-1.7,6.6-1.7,6.6S620.2,101.4,621.8,100.1z"/>
<path class="st11" d="M621.8,100.1c-0.4-0.8-0.7-1.7-0.8-2.6c0-1.6,0.6-3.1,1.7-4.2c-1-1.4-1.6-0.5-1.6-0.5
	c-2.6,0.9-1.7,6.6-1.7,6.6S620.2,101.4,621.8,100.1z"/>
<g class="st8">
	<path d="M616.6,81.9c1.4,0.9,3,1.5,4.6,1.7c0.1-0.3,0.3-0.6,0.5-0.9l-5.9-2.4C616.1,80.8,616.4,81.3,616.6,81.9z"/>
	<path d="M618.6,90.5c0,0,2.3,0.4,2.1-1.7c0-0.2-0.1-0.4-0.1-0.6c-0.2-0.6-0.2-1.3-0.1-1.9c0-0.2,0.1-0.5,0.1-0.7
		c0.2-1,0.6-2,1.1-2.9l-5.9-2.4c0.3,0.5,0.6,1.1,0.8,1.6c0.3,0.8,0.5,1.6,0.2,2.1c-0.1,0.1-0.2,0.2-0.4,0.3c-0.1,0-0.3,0-0.5,0h-0.5
		c-1.8,0-1.4,1-1.4,1C613.4,88,618.6,90.5,618.6,90.5z"/>
	<path d="M616.4,84.3l4,2c0-0.2,0.1-0.5,0.1-0.7c-1.1-0.4-2.7-1.1-3.7-1.6C616.7,84.1,616.6,84.2,616.4,84.3z"/>
	<path d="M618.6,90.5c0,0,2.3,0.4,2.1-1.7c-0.9-0.1-1.8-0.4-2.6-0.8c-1.3-0.9-2.2-2.2-2.6-3.7c-1.8,0-1.4,1-1.4,1
		C613.4,88,618.6,90.5,618.6,90.5z"/>
	<path class="st11" d="M618.6,90.5c0,0,2.3,0.4,2.1-1.7c-0.9-0.1-1.8-0.4-2.6-0.8c-1.3-0.9-2.2-2.2-2.6-3.7c-1.8,0-1.4,1-1.4,1
		C613.4,88,618.6,90.5,618.6,90.5z"/>
</g>
<path class="st10" d="M618.2,89.9c0,0,2.3,0.4,2.1-1.7c0-0.2-0.1-0.4-0.1-0.6c-0.2-0.6-0.2-1.3-0.1-1.9c0-0.2,0.1-0.5,0.1-0.7
	c0.1-0.7,0.3-1.4,0.6-2c0.1-0.3,0.3-0.6,0.5-0.9l-5.9-2.4c0.3,0.5,0.6,1.1,0.8,1.6c0.3,0.8,0.5,1.6,0.2,2.1
	c-0.1,0.1-0.2,0.2-0.4,0.3c-0.1,0-0.3,0-0.5,0H615c-1.8,0-1.4,1-1.4,1C613,87.4,618.2,89.9,618.2,89.9z"/>
<path class="st14" d="M616,83.7l4,2c0-0.2,0.1-0.5,0.1-0.7c-1.1-0.4-2.7-1.1-3.7-1.6C616.3,83.5,616.1,83.6,616,83.7z"/>
<path class="st10" d="M618.2,89.9c0,0,2.3,0.4,2.1-1.7c-0.9-0.1-1.8-0.4-2.6-0.8c-1.3-0.9-2.2-2.2-2.6-3.7c-1.8,0-1.4,1-1.4,1
	C613,87.4,618.2,89.9,618.2,89.9z"/>
<path class="st11" d="M618.2,89.9c0,0,2.3,0.4,2.1-1.7c-0.9-0.1-1.8-0.4-2.6-0.8c-1.3-0.9-2.2-2.2-2.6-3.7c-1.8,0-1.4,1-1.4,1
	C613,87.4,618.2,89.9,618.2,89.9z"/>
<path class="st10" d="M595.1,117.3c0.3-0.5,0.6-1.1,0.9-1.6c0.5-0.7,1.1-1.4,1.6-1.4c0.2,0,0.3,0.1,0.5,0.2c0.1,0.1,0.2,0.2,0.3,0.4
	c0.1,0.2,0.2,0.3,0.3,0.4c1,1.5,1.6,0.6,1.6,0.6c2.6-0.9,1.8-6.6,1.8-6.6s-1-2.1-2.6-0.8c-0.1,0.1-0.3,0.2-0.4,0.4
	c-0.6,0.6-1.3,1.2-2.2,1.5c-0.6,0.3-1.3,0.5-2,0.6c-0.3,0.1-0.7,0.1-1,0.1L595.1,117.3z"/>
<path class="st14" d="M597.6,114.4c0.2,0,0.3,0.1,0.5,0.2l-0.6-4.5c-0.2,0.1-0.4,0.2-0.6,0.3C597.1,111.4,597.4,113.2,597.6,114.4z"
	/>
<path class="st10" d="M598.6,115.3c1,1.5,1.6,0.6,1.6,0.6c2.6-0.9,1.8-6.6,1.8-6.6s-1-2.1-2.6-0.8c0.4,0.8,0.7,1.7,0.8,2.6
	C600.3,112.7,599.7,114.2,598.6,115.3z"/>
<path class="st11" d="M598.6,115.3c1,1.5,1.6,0.6,1.6,0.6c2.6-0.9,1.8-6.6,1.8-6.6s-1-2.1-2.6-0.8c0.4,0.8,0.7,1.7,0.8,2.6
	C600.3,112.7,599.7,114.2,598.6,115.3z"/>
<path class="st11" d="M593,125.7c1.9-3,2.9-6.5,3-10c0.5-0.7,1.1-1.4,1.6-1.4c0.2,0,0.3,0.1,0.5,0.2c0.1,0.1,0.2,0.2,0.3,0.4
	c0.1,0.2,0.2,0.3,0.3,0.4c1,1.5,1.6,0.6,1.6,0.6c2.6-0.9,1.8-6.6,1.8-6.6s-1-2.1-2.6-0.8c-0.1,0.1-0.3,0.2-0.4,0.4
	c-0.6,0.6-1.3,1.2-2.2,1.5c-0.6,0.3-1.3,0.5-2,0.6c-0.5-1-1.1-1.9-1.8-2.8c-2.5-2.6-5.5-4.6-8.9-5.9
	C585.5,111.1,588.1,120.5,593,125.7z"/>
<path class="st11" d="M607,128.8c0.7-0.1,1.4-0.3,2.2-0.5c0.6-0.2,1.3-0.4,1.9-0.7l0.4-0.2c0.5-0.2,1.1-0.5,1.6-0.8s0.8-0.4,1.2-0.6
	c7.6-4.4,15-13.2,18.3-22.2c0.9-2.4,1.5-5,1.8-7.6c0.1-1.4,0.1-2.8-0.1-4.1c-0.5-4-1.7-7.8-3.7-11.2c-0.2-0.4-0.4-0.7-0.7-1.1
	c-5-7.7-13.4-12.4-22.3-11.4c1.9,5.6,4.7,10.4,8.6,12.9c0.3,0.8,0.5,1.6,0.2,2.1c-0.1,0.1-0.2,0.2-0.4,0.3c-0.1,0-0.3,0-0.5,0h-0.5
	c-1.8,0-1.4,1-1.4,1c-0.7,2.6,4.5,5.2,4.5,5.2s2.3,0.4,2.1-1.7c0-0.2-0.1-0.4-0.1-0.6c-0.2-0.6-0.2-1.3-0.1-1.9
	c0-0.2,0.1-0.5,0.1-0.7c0.1-0.7,0.3-1.4,0.6-2c1.1,0.1,2.2,0.1,3.3,0c1.6-0.2,3.1-0.6,4.6-1.2c-0.2,0.3-0.4,0.7-0.6,1
	c-1.9,3-2.9,6.5-3,10c-0.5,0.7-1,1.4-1.6,1.4c-0.2,0-0.3-0.1-0.4-0.2c-0.1-0.1-0.2-0.2-0.3-0.4c-0.1-0.2-0.2-0.3-0.3-0.4
	c-1-1.4-1.6-0.5-1.6-0.5c-2.6,0.9-1.7,6.6-1.7,6.6s1,2.1,2.6,0.8c0.1-0.1,0.3-0.3,0.4-0.4c0.4-0.5,0.9-0.9,1.5-1.2
	c0.2-0.1,0.4-0.2,0.6-0.3c0.6-0.3,1.3-0.5,2-0.6c0.5,1,1.1,1.9,1.9,2.8l0.4,0.4l-0.1,0.1c-3.2,2.9-6.2,6.1-8.9,9.4
	c-0.8,1-1.6,2.1-2.3,3.2c-0.5,0.8-1,1.5-1.4,2.2c-1.9,3-2.9,6.5-2.9,10c-0.5,0.7-1,1.4-1.6,1.4c-0.2,0-0.3-0.1-0.5-0.2
	c-0.1-0.1-0.2-0.2-0.3-0.4c-0.1-0.2-0.2-0.3-0.3-0.4c-1-1.4-1.6-0.5-1.6-0.5C607.6,126,607.2,127.4,607,128.8z"/>
<g class="st8">
	<path d="M618.4,78.8c0.5,0.2,1.1,0.3,1.7,0.2c0.9,0,1.7,0.3,2.5,0.7c-0.4-5.1-7.4-6.6-7.4-6.6C616.9,74.5,618,76.5,618.4,78.8z"/>
	<path d="M583.5,97.4c0.1,1,0.3,2.1,0.4,3.1c4.5,1.4,8.9,1.8,12.6,0.7c0.8,0.3,1.6,0.6,1.8,1.2c0.1,0.2,0.1,0.3,0,0.5
		c-0.1,0.1-0.2,0.3-0.3,0.4c-0.1,0.1-0.2,0.2-0.3,0.4c-1.1,1.4-0.1,1.7-0.1,1.7c1.6,2.2,6.9-0.2,6.9-0.2s1.8-1.5,0-2.7
		c-0.2-0.1-0.3-0.2-0.5-0.3c-0.6-0.3-1.1-0.7-1.6-1.1c-0.2-0.2-0.3-0.3-0.5-0.5c-0.4-0.5-0.8-1.1-1.1-1.8c0.8-0.8,1.6-1.6,2.2-2.6
		c4.2-6.6,4.2-18.2,0.8-28.3C590.7,69.7,581.7,82.9,583.5,97.4z"/>
	<path d="M595.6,126.5c1.4,0.9,3,1.5,4.6,1.7c0.1-0.3,0.3-0.6,0.5-0.9l-5.9-2.4C595.1,125.4,595.4,125.9,595.6,126.5z"/>
	<path d="M597.6,135.1c0,0,2.3,0.4,2.1-1.7c0-0.2,0-0.4-0.1-0.6c-0.2-0.6-0.2-1.3-0.1-1.9c0-0.2,0-0.5,0.1-0.7
		c0.1-0.7,0.3-1.4,0.6-2c0.1-0.3,0.3-0.6,0.5-0.9l-5.9-2.4c0.3,0.5,0.6,1.1,0.8,1.6c0.3,0.8,0.5,1.7,0.2,2.1
		c-0.1,0.1-0.2,0.2-0.4,0.3c-0.2,0-0.3,0-0.5,0c-0.2,0-0.3,0-0.5,0c-1.8,0-1.4,1-1.4,1C592.4,132.6,597.6,135.1,597.6,135.1z"/>
	<path d="M595.4,128.9l4,2c0-0.2,0-0.5,0.1-0.7c-1-0.4-2.7-1.1-3.7-1.6C595.7,128.7,595.6,128.8,595.4,128.9z"/>
	<path d="M597.6,135.1c0,0,2.3,0.4,2.1-1.7c-0.9-0.1-1.8-0.4-2.6-0.8c-1.3-0.9-2.3-2.2-2.6-3.7c-1.8,0-1.4,1-1.4,1
		C592.4,132.6,597.6,135.1,597.6,135.1z"/>
	<path class="st11" d="M597.6,135.1c0,0,2.3,0.4,2.1-1.7c-0.9-0.1-1.8-0.4-2.6-0.8c-1.3-0.9-2.3-2.2-2.6-3.7c-1.8,0-1.4,1-1.4,1
		C592.4,132.6,597.6,135.1,597.6,135.1z"/>
	<path class="st11" d="M618.4,78.8c0.5,0.2,1.1,0.3,1.7,0.2c0.9,0,1.7,0.3,2.5,0.7c-0.4-5.1-7.4-6.6-7.4-6.6
		C616.9,74.5,618,76.5,618.4,78.8z"/>
</g>
<path class="st10" d="M584.9,98.2c1.8,14.7,6.9,32.4,20.1,30.8s29.5-22,27.7-36.7s-14-25.3-27.2-23.6S583.1,83.5,584.9,98.2z"/>
<path class="st10" d="M599,135.9c0,0,2.3,0.4,2.1-1.7c0-0.2-0.1-0.4-0.1-0.6c-0.2-0.6-0.2-1.3-0.2-1.9c0-0.2,0.1-0.5,0.1-0.7
	c0.2-1,0.6-2,1.1-2.9l-5.9-2.4c0,0,1.7,2.8,1,3.7c-0.1,0.1-0.2,0.2-0.4,0.3c-0.1,0-0.3,0-0.5,0h-0.5c-1.8,0-1.4,1-1.4,1
	C593.8,133.4,599,135.9,599,135.9z"/>
<path class="st14" d="M596.8,129.7l4,2c0-0.2,0.1-0.5,0.1-0.7c-1.1-0.4-2.7-1.1-3.7-1.6C597.1,129.5,597,129.6,596.8,129.7z"/>
<path class="st10" d="M599,135.9c0,0,2.3,0.4,2.1-1.7c-0.9-0.1-1.8-0.4-2.6-0.8c-1.3-0.9-2.2-2.2-2.6-3.7c-1.8,0-1.4,1-1.4,1
	C593.8,133.4,599,135.9,599,135.9z"/>
<path class="st11" d="M599,135.9c0,0,2.3,0.4,2.1-1.7c-0.9-0.1-1.8-0.4-2.6-0.8c-1.3-0.9-2.2-2.2-2.6-3.7c-1.8,0-1.4,1-1.4,1
	C593.8,133.4,599,135.9,599,135.9z"/>
<path class="st16" d="M616.6,73.9c0,0,7,1.5,7.4,6.6c-0.8-0.4-1.6-0.6-2.5-0.7c-0.6,0.1-1.1,0-1.7-0.2
	C619.5,77.4,618.3,75.3,616.6,73.9z"/>
<path class="st17" d="M599.4,131c2.3,0.2,4.1,2.3,3.9,4.6c0,0.2-0.1,0.4-0.1,0.6c-0.9,2.9-4.5,3.9-6.9,5.9s-3.5,5.1-3.8,8.2
	c-0.5,5.9,1.6,11.7,5.8,15.9c2.1,2.1,4.7,3.7,6.8,5.8c2.4,2.7,4.4,5.7,5.8,8.9c1.3,2.3,2.2,4.9,2.6,7.5c0.3,4.2-1.8,8.2-4.3,11.6
	s-5.6,6.4-7.5,10.2c-2.7,5.2-3.1,11.2-1.2,16.8c0.1,0.4,0.4,0.8,0.7,1.1c0.4,0.3,0.8,0.2,1.1-0.2c0,0,0-0.1,0.1-0.1"/>
<path class="st17" d="M611.7,130.2c0.6,0.7,0.7,1.8,0.1,2.5c-0.6,0.7-1.5,1.1-2.4,1.1c-1.1,0-2.4-0.4-3.3,0.3c-0.6,0.5-1,1.3-1,2.2
	c0,0.8-0.1,1.6-0.2,2.4c-0.2,0.7-0.6,1.3-1.1,1.8c-0.5,0.6-1.2,1.1-2,1.5c-1.7,0.6-3.6,0.1-5.3,0.6c-2.2,0.7-3.5,3.1-4.1,5.4
	c-0.9,2.7-1.1,5.6-0.5,8.4c0.6,1.8,1.3,3.5,2.3,5.1c0.9,1.6,1.4,3.5,1.5,5.4c0,1.9-1.1,3.7-2.8,4.5"/>
<path class="st17" d="M608.9,194.8c-2.7,3.6-3.7,9.3-8.1,10.2c-2.3,0.5-4.5-0.7-6.5-1.8c-4.7-2.6-9.6-5.3-15-6.2s-11.4,0.4-14.9,4.5
	c-2.4,2.8-3.4,6.6-5.5,9.6c-2.8,3.7-6.7,6.3-11.2,7.4c-4.4,1.1-9,1.5-13.6,1.2c-1.7,0-3.5-0.2-4.8-1.3c-0.8-0.9-1.5-1.9-2-3
	c-2.2-3.6-6.5-5.6-10.7-5.9s-8.4,1-12.3,2.6c-2,0.8-4,1.8-6.1,1.5c-3-0.3-5.2-2.7-7.1-5c-4.8-6.1-8.9-12.7-12.1-19.7"/>
<linearGradient id="SVGID_2_" gradientUnits="userSpaceOnUse" x1="-372.0991" y1="144.5735" x2="-372.0991" y2="488.764" gradientTransform="matrix(-1 -4.000000e-02 4.000000e-02 -1 150.16 656.9)">
	<stop  offset="0" style="stop-color:#808080;stop-opacity:0.25"/>
	<stop  offset="0.54" style="stop-color:#808080;stop-opacity:0.12"/>
	<stop  offset="1" style="stop-color:#808080;stop-opacity:0.1"/>
</linearGradient>
<path class="st18" d="M447.5,516.3c1.1-3.9,1.8-7.3,1.8-7.3c0-2.6,0.7-5.2,2-7.4l0-1.1l0,0l0.3-7.9c-0.5-1.5-1.1-2.9-1.8-4.2
	c-1.3-2.5,0.5-11.6,0.5-11.6s5.8-12.6,4.8-20.8s12.2-35.7,12.2-35.7c0-2.7-0.3-5.4-0.8-8c-0.1-0.6-0.1-1.1-0.1-1.7v-0.1
	c0.4-5.4,5-15.2,5-15.2l0.2-19.2c0,0-2.3-11.4,2.7-26.4c1.7-5.2,2.9-9.4,3.6-12.7c0.1-0.4,0.2-0.7,0.2-1.1c-9-1.7-15.9-3.2-15.9-3.2
	s6.1-21.8,9.8-25.5c3.7-3.7,7-15.7,7-15.7s2.5-15.5-0.4-20.2c-2.8-4.7-2.9-12.6-2.9-12.6s-6.6-5.2-7.4-7.5s-2-7.2-1.9-9.9
	s1-4.9,0.8-6.3s2.2-6.5,1.2-9.1c-0.3-0.8-0.4-1.6-0.4-2.4c0,0,0,0,0-0.1l0,0c0.1-2.2,0.4-4.3,0.8-6.4c2-1.6,4.4-2.7,6.9-3.4l0.2-0.6
	l0.4-1.5c0.2-0.1,0.5-0.3,0.7-0.4v-0.6l0.2-2.2l-0.9-5.1c-1.8-8.8,10-9.7,10-9.7c0.8-1.3,2-2.3,3.4-2.8c2.4-0.7-0.1,13.2-1.2,14
	c-0.8,0.6-3.6,4.9-4.9,7l0,0l-0.2,0.4c0.2,0.2,0.4,0.4,0.5,0.6l-0.6,3l-0.1,0.5c0.7,1,1.3,2.1,1.7,3.2c0,0-2.2,2.3-1.9,4.9
	c0.1,2-0.2,4.1-0.9,6c0.1-0.1,1.7-1.7,3.2-1.2s5.6,1.9,5.6,1.9s3.1,0.7,2.8,1.4s2,3.8,2,3.8l8.8-7.5c0.1-0.2,0.2-0.5,0.3-0.7
	c0.4-1.1,0.7-2.3,0.9-3.5c-0.9-0.3-1.8-0.6-2.7-1c-0.9-0.3-1.7-0.9-2.3-1.6c-0.7-1.1-1.1-2.4-1.2-3.7c-0.6-2.5-1.9-4.7-2.9-7.1
	c-1.6-4-2-8.4-1.2-12.6c0.2-1.3,0.7-2.5,1.4-3.6c1.4-1.8,4-2.5,5.8-3.9s3.1-3.7,5.3-4.8c2-1,4.3-0.7,6.4-0.3
	c4.2,0.9,8.2,2.5,11.8,4.8c1.2,0.8,2.5,1.7,3.9,1.5c1.2-0.3,2.3-1,3-2v-0.1l0.1-0.1c0.8,2,1.2,4.2,1.1,6.4c0,0.3,0,0.7-0.1,1v0.4
	c0,0.1,0,0.2,0,0.3l0,0c0,0.1,0,0.3,0,0.5c0.2,0.4,0.4,0.8,0.7,1.2c0.2,0.3,0.5,0.6,0.7,1c0-0.1-0.1-0.2-0.1-0.4
	c0.5,0.8,0.8,1.7,0.8,2.7c0,0.7-0.2,1.4-0.7,1.9c-0.4,0.4-0.9,0.7-1.4,1c1,6.7-2.4,13.2-8.3,16.4c-0.1,0.2-0.2,0.5-0.3,0.7
	c-1.3,2.9-2,6-1.9,9.1c0,0.2,0,0.4,0.1,0.7c0.1,0.1,0.2,0.2,0.3,0.4l0,0c0,0,13.9,0.7,17.3-2.2s8,7.6,8,7.6s5,1.1,6,0.2
	s6.8,0.1,6.8,0.1c2.5-2,5.6-3,8.8-2.8c2-1.4,4.2-2.5,6.5-3.3l0,0h0.2l0,0c1-0.3,2.1-0.4,3.1-0.3c0,0,7-5.4,9.2-8.3
	s12-13.8,12.1-13.9l0-0.5l0.2-1.6c0.3,0.1,0.6,0.1,0.8,0.1c0.1-0.2,0.1-0.4,0.2-0.6c0.6-1.6,1.3-3.1,2.2-4.5c0,0,0.1-2.1-0.5-2.6
	s0.6-8.1,0.6-8.1s6.7-14.1,11.8-3.2c0,0,10.2,7.4,1.1,15.1c0,0-3.5,1.5-4.1,2.9c-0.4,0.9-1.6,3.2-2.5,4.8c-0.2,0.3-0.3,0.5-0.4,0.7
	l0.1,0.1l-0.2,1.3l-0.1,0.5c1.6,1,2.7,2,2.4,2.7c-0.5,1.2-0.9,2.4-1.1,3.7c0,0-12.7,14.7-14.5,21.1c0,0-33.2,18-43.9,19l1.5,9.7
	c0,0,0.3,5.8,0.1,7.9s0.8,11.5,0.8,11.5s1.3,13.8,2.8,15.8s0.9,10.2,0.9,10.2c0.2,4,0.8,7.9,1.7,11.8c1.4,5.3,0,11.7,0,11.7
	s4.9,12.6-7.7,3.7c0,0-6.3-0.6-13.7-1.2c0,0.2,0,0.5,0,0.7c0,0.9,0,2-0.1,3c-0.2,7.1-0.5,16.9-1.1,24.3c-1.1,13.1-6.1,38.8-6.1,38.8
	l-0.5,13c0.2,1.2,0.3,2.5,0.2,3.7c-0.1,4.6-1.5,9.1-4,12.9l-1.5,8.6c0,0-2.6,5.6-2.7,9c0,0.3,0,0.6,0.1,0.8c0.1,0.4,0.1,0.9,0.1,1.3
	c0,3.9-2.8,13.3-2.8,13.3s-0.5,9.5-2,10c-1.2,0.4,1.4,5.5,2.2,7c0-0.1,0-0.2,0.1-0.3l0.2,0.3c0.3,0.8,0.4,1.6,0.3,2.4
	c0.1,1.3-0.6,2.6-1.7,3.3c-2.8,1.5-4.3,2.9-2,3.5c0.9,0.2,1.8,0.3,2.5,0.6c0-0.1,0.1-0.2,0.1-0.3c0.7,0.3,1,1,0.9,1.7
	c-0.1,1.1-0.4,2.2-1,3.2c-1.1,2.4-2.5,4.7-4.1,6.9l-1.1-0.2c0.1,0.4,0.3,0.8,0.6,1.2c0.4,0.6,0.9,1.1,1.5,1.5
	c0.6,0.4,1.2,0.6,1.9,0.7c1.6,0.1,3,0.9,4,2.1c1.3,1.9,2.1,4.4-0.8,6.5l-10.3,3.1c0,0-17.6,1.6-16.5-2.3s1.8-7.3,1.8-7.3
	c0-2.4,0.6-4.7,1.7-6.8c0.2-0.4,0.4-0.7,0.7-1l-0.6-0.1c0,0-0.9-8.7-2.6-10.4c-0.4-0.4-0.5-0.7-0.3-0.9c-0.2-0.5,0.3-0.7,0.9-0.9
	c0,0.1,0.1,0.2,0.1,0.3c0.6-0.1,1.1-0.1,1.7-0.1c0,0,0.8-4.5-1-6.2c-0.3-0.4-0.4-0.9-0.3-1.4c0-0.6,0.1-1.2,0.3-1.8l0.1,0.1
	c1.1-4.1,4.5-10.5,4.5-10.5s0.3-4.1-0.8-5.8s1-22.5,1-22.5s0-10.1,1.4-14.7s-1.2-10.2-1.2-10.2v-0.3c0,0,0,0,0-0.1l0.2-1.6v0.1
	c0.4-2.7,1.1-7.5,1.6-9.7c0.7-3.1,0.6-18.3,0.6-18.3l-2.3-6.6l-5,11l-5.4,14.6c0,0-2.5,3-2.7,6.2c0,0.2,0,0.3,0,0.5c0,0.3,0,0.7,0,1
	c0,1.9-0.6,3.7-1.7,5.2c0,0-1.5,7-3.6,8.7s-2.2,5.2-2.2,5.2s-2.8,10.1-4,11.8c-1,1.5-1.2,5.6-1.3,6.9l0,0c0,0.2,0,0.4,0,0.4
	s-0.5,3.6-0.6,6.7c0,0.4,0,0.7,0,1.1c0,0,0-0.1,0-0.1c0,0.8,0,1.7,0.2,2.5c0,0,0,0.1,0,0.1v-0.5c0.4,2.1,0.6,4.2,0.5,6.4
	c-0.1,3.7-0.8,8-3.1,10.4c-4,4.3-6.4,3.6-6.4,3.6s1.6,5.6,3.9,6.8c0.1,0,0.2,0.1,0.2,0.2c0-0.1,0-0.2,0.1-0.3
	c0.5,0.6,0.7,1.3,0.6,2.1c0.1,2.4-1.6,6.3-3.1,8.1c-0.6,0.5-1.3,0.9-2,1l0.3,0.2c0.3,0.2,0.5,0.3,0.8,0.4c0.4,0.2,0.8,0.3,1.2,0.3
	c1.6,0.1,3,0.9,4,2.1c1.3,1.9,2.2,4.4-0.7,6.5l-10.3,3.1C464,518.6,446.4,520.2,447.5,516.3z"/>
<path class="st19" d="M514.1,525.4l10-3.1c2.8-2.1,2-4.6,0.7-6.5c-0.9-1.2-2.3-2-3.8-2.1c-0.7-0.1-1.3-0.4-1.9-0.7
	c-0.6-0.4-1.1-0.9-1.5-1.5c-0.7-1.2-1-2.5-1-3.8c0,0-10.7-3.6-13.8-0.5c-0.5,0.6-1,1.2-1.4,1.9c-1.1,2.2-1.6,4.5-1.7,6.9
	c0,0-0.7,3.4-1.7,7.3S514.1,525.4,514.1,525.4z"/>
<path class="st19" d="M466.1,518.7l10-3.1c2.8-2.1,2-4.6,0.7-6.5c-0.9-1.2-2.3-2-3.8-2.1c-0.4-0.1-0.8-0.2-1.1-0.3
	c-0.3-0.1-0.5-0.2-0.7-0.4c-2.7-1.6-2.5-5.3-2.5-5.3s-10.7-3.6-13.8-0.5c-0.4,0.4-0.8,0.9-1.1,1.4c-1.3,2.3-1.9,4.8-1.9,7.4
	c0,0-0.7,3.4-1.7,7.3S466.1,518.7,466.1,518.7z"/>
<path class="st11" d="M502.9,507c-0.5,0.6-1,1.2-1.4,1.9l0,0l16.1,2.5c-0.7-1.2-1-2.5-1-3.8C516.6,507.5,506,504,502.9,507z"/>
<path class="st11" d="M453.8,501.7l-0.1,3c2.4,4.3,14.6,3.8,18.2,1.9c-0.3-0.1-0.5-0.2-0.7-0.4c-2.7-1.6-2.5-5.3-2.5-5.3
	s-10.7-3.6-13.8-0.5C454.4,500.8,454.1,501.2,453.8,501.7z"/>
<path class="st3" d="M452.4,488.5c0.7,1.4,1.3,2.8,1.8,4.2l-0.4,10.9c2.6,4.7,17,3.7,19,1.3s4.3-8.8,2.2-10s-3.7-6.8-3.7-6.8
	s2.3,0.6,6.2-3.6s3.2-14.1,2.6-16.5s0.4-10.2,0.4-10.2s0.1-5.5,1.2-7.3s3.9-11.9,3.9-11.9s0.1-3.4,2.1-5.2s3.5-8.7,3.5-8.7
	c1.2-1.7,1.8-3.8,1.6-5.9c-0.3-3.5,2.6-7.1,2.6-7.1l5.2-14.7l4.8-11l2.2,6.6c0,0,0.1,15.2-0.6,18.3c-0.7,3.2-1.8,11.5-1.8,11.5
	s2.5,5.6,1.1,10.2s-1.4,14.7-1.4,14.7s-2,20.8-1,22.5s0.7,5.8,0.7,5.8s-6.1,11.9-4.4,13.6s1,6.2,1,6.2s-3.8-0.2-2.3,1.6
	s2.6,10.4,2.6,10.4l16.6,2.6c1.6-2.1,2.9-4.4,4-6.9c2.4-5-0.2-4.6-2.4-5.2s-0.7-2,1.9-3.5s1.3-5.3,1.3-5.3s-3.7-6.9-2.3-7.4
	s1.9-10,1.9-10s3.2-11.2,2.6-14.2s2.6-10.2,2.6-10.2l1.3-8.6c3.1-4.8,4.4-10.6,3.7-16.3l0.5-13.4c0,0,4.8-25.8,5.9-38.8
	c0.7-8.4,1-19.8,1.2-27c0.1-4,0.1-6.7,0.1-6.7l-59.3-8.5c-0.2,3-0.7,5.9-1.4,8.8c-0.7,3.2-1.8,7.4-3.5,12.7
	c-4.9,15-2.7,26.4-2.7,26.4l-0.2,19.2c0,0-5.7,12.6-4.8,17.1c0.6,2.6,0.8,5.3,0.8,8c0,0-12.8,27.5-11.9,35.7s-4.7,20.8-4.7,20.8
	S451.1,486,452.4,488.5z"/>
<path class="st7" d="M489.1,418.1l-18-3.1C471.1,415,481,425.8,489.1,418.1z"/>
<path class="st11" d="M474.4,397.4c0,0-0.9,6.4,3,8.9C477.4,406.3,470.4,404.9,474.4,397.4z"/>
<path class="st11" d="M476.3,377c0,0,14.7,13,20.2,12.2C502.1,388.4,476.3,377,476.3,377z"/>
<path class="st11" d="M511.4,424.8c0,0,11.4,3.1,11.6,7.7S511.4,424.8,511.4,424.8z"/>
<path class="st7" d="M506.6,482.1c0,0,16.1,3.7,11.4,5.5c-4,1.4-8.1,2.5-12.3,3.2C505.7,490.9,500.5,491,506.6,482.1z"/>
<g class="st20">
	<path d="M521.2,491.1c0.8-0.5,1.4-1.3,1.6-2.3l0.2,0.3c0,0,1.4,3.8-1.3,5.3l-0.9,0.5c-0.5-0.1-1-0.2-1.5-0.3
		C517.1,494,518.6,492.6,521.2,491.1z"/>
	<path d="M500.3,489.2c-0.4-0.4-0.4-1.5,0-2.8c0.6,1.2,0.9,2.6,0.8,4C500.9,489.9,500.6,489.5,500.3,489.2z"/>
	<path d="M505.5,420.7c0.5,1.6,0.8,3.4,0.9,5.1c-0.3-1.2-0.6-2.4-1.1-3.5C505.3,422.3,505.3,421.7,505.5,420.7z"/>
	<path d="M468.5,412.1c-0.1-0.5-0.1-1-0.1-1.5c0.2,1,0.3,2,0.3,2.8C468.7,413,468.6,412.5,468.5,412.1z"/>
	<path d="M504,469.7c-0.3-1-0.4-2-0.3-3.1c0.5,1.2,0.7,2.6,0.7,3.9C504.2,470.3,504.1,470,504,469.7z"/>
	<path d="M499.6,495.6c0.8,2.8,1.3,5.6,1.6,8.5l16.6,2.6c1.6-2.1,2.9-4.4,4-6.9c0.2-0.4,0.4-0.8,0.5-1.2c1,0.5,1.3,1.5-0.1,4.5
		c-1.1,2.4-2.4,4.8-4,6.9l-16.6-2.6c0,0-0.9-8.7-2.5-10.5C498.3,496.1,498.8,495.8,499.6,495.6z"/>
	<path d="M522.5,471.7c0,0-0.5,9.5-1.9,10l0,0c-0.6-1.6-1-3.1-0.4-3.3c1.4-0.5,1.9-10,1.9-10s3.2-11.2,2.6-14.2s2.6-10.2,2.6-10.2
		l1.3-8.6c3.1-4.8,4.4-10.6,3.7-16.3l0.5-13.4c0,0,4.9-25.8,5.9-38.8c0.7-8.4,1-19.8,1.2-27c0-1.3,0-2.4,0.1-3.4l0.5,0.1
		c0,0,0,2.7-0.1,6.7c-0.2,7.1-0.5,18.6-1.2,27c-1.1,13.1-5.9,38.8-5.9,38.8l-0.5,13.4c0.8,5.7-0.5,11.5-3.7,16.3l-1.3,8.6
		c0,0-3.2,7.2-2.6,10.2S522.5,471.7,522.5,471.7z"/>
	<path d="M472.3,501.2c1.4-1.9,2.4-4.1,2.9-6.5c1.6,1.6-0.5,7.5-2.5,9.8s-16.4,3.4-19-1.3l0.1-2.6
		C457.4,504.5,470.4,503.5,472.3,501.2z"/>
	<path d="M451.9,484.8c0.7,1.4,1.3,2.8,1.8,4.2l-0.1,1.9c-0.3-0.7-0.7-1.7-1.3-2.8C452,487.1,451.8,485.9,451.9,484.8L451.9,484.8z"
		/>
	<path d="M471.9,487.8c-0.5-1.1-0.9-2.2-1.2-3.3c0,0,2.3,0.6,6.2-3.6c2.8-3.1,3.2-9.2,3-13.1c0.6,2.4,1.3,12.2-2.6,16.5
		C474.8,486.9,472.9,487.6,471.9,487.8z"/>
	<path d="M480.3,457.5c-0.4,2.7-0.5,5.4-0.6,8.2c-0.1-0.5-0.2-1-0.2-1.3c-0.6-2.4,0.4-10.2,0.4-10.2s0.1-5.5,1.2-7.3
		s3.9-11.8,3.9-11.8s0.1-3.5,2.1-5.2s3.5-8.7,3.5-8.7c1.2-1.7,1.8-3.8,1.6-5.9c-0.3-3.5,2.6-7.1,2.6-7.1l5.3-14.7l4.8-11l2.2,6.6
		c0,0,0,0.8,0,2.1l-1.8-5.3l-4.8,11l-5.2,14.7c0,0-2.9,3.6-2.6,7.1c0.2,2.1-0.4,4.2-1.6,5.9c0,0-1.5,7-3.5,8.7s-2.1,5.2-2.1,5.2
		s-2.7,10.1-3.9,11.8S480.3,457.5,480.3,457.5z"/>
</g>
<path class="st21" d="M478.5,203.6l0.8,5.1l-0.1,2.2l-0.1,1.6l5.7,0.8l0.7-1.2l0,0c1.3-2.1,3.9-6.4,4.7-7c1.1-0.9,3.5-14.8,1.2-14
	c-1.4,0.5-2.6,1.5-3.3,2.8C488.1,194,476.8,194.8,478.5,203.6z"/>
<path class="st11" d="M479.1,212.6l5.7,0.8l0.7-1.2l0,0c-1.5-1.9-4.2-2.4-6.3-1.3L479.1,212.6z"/>
<path class="st22" d="M477.5,215.2l7.5,2l0.2-1.1l0.5-3c-1.6-2.4-4.9-3-7.3-1.3c0,0,0,0,0,0l-0.4,1.5L477.5,215.2z"/>
<path class="st21" d="M600.7,208.9l7.9,4.6l0.8-1.5c0.8-1.6,2.1-4,2.4-4.8c0.5-1.3,4-2.9,4-2.9c8.8-7.8-1-15.1-1-15.1
	c-4.9-11-11.4,3.2-11.4,3.2s-1.1,7.5-0.5,8.1s0.5,2.6,0.5,2.6c-0.8,1.5-1.5,3-2.1,4.6C600.9,208.4,600.7,208.9,600.7,208.9z"/>
<path class="st11" d="M600.7,208.9l7.9,4.6l0.8-1.5c-1.1-1-5-4.4-6.4-4.3c-0.6,0.1-1.3,0.1-1.9,0
	C600.9,208.4,600.7,208.9,600.7,208.9z"/>
<path class="st22" d="M599.8,211.3l8.9,4.8l0.3-2l0.2-1.3c0,0-5.1-4.7-6.7-4.6c-0.8,0.1-1.6,0-2.4-0.1l-0.2,1.6L599.8,211.3z"/>
<path class="st21" d="M499.3,237.9c0,0,39.5,6,32.1,3.3c-5.1-1.9-7-5.2-7.3-8.9c-0.1-3.1,0.5-6.3,1.8-9.1c1-2.5,2.3-4.8,3.8-7
	c0,0-29.7-17.8-24.2-2.5c0.8,2.3,1.3,4.8,1.4,7.2c0.1,2.5-0.3,4.9-1.1,7.2C504.6,232,502.3,235.3,499.3,237.9z"/>
<path class="st11" d="M505.6,213.7c0.8,2.3,1.3,4.8,1.4,7.2c2.8,2.5,5.9,2.5,9.9,2.6c3.1,0.1,6.5,1,9-0.4c1-2.5,2.3-4.8,3.8-7
	C529.8,216.2,500.1,198.3,505.6,213.7z"/>
<ellipse transform="matrix(0.1602 -0.9871 0.9871 0.1602 229.5081 686.2344)" class="st21" cx="518" cy="208.2" rx="16.4" ry="16.4"/>
<path class="st11" d="M499.3,237.9c0,0,39.5,6,32.1,3.3c-5.1-1.9-7-5.2-7.3-8.9c-1.9-2.2-5.8-3.9-8.3-4.8c-2.3-0.9-4.8-1-7.2-0.4
	c-0.9,0.2-1.8,0.6-2.7,1.1C504.6,232,502.3,235.3,499.3,237.9z"/>
<path class="st11" d="M477.5,215.2l7.5,2l0.2-1.1c-1.6-2.3-4.4-3.5-7.2-2.8L477.5,215.2z"/>
<path class="st11" d="M599.8,211.3l8.9,4.8l0.3-2c-2.9-1.7-5.9-3.2-9-4.4L599.8,211.3z"/>
<path class="st11" d="M479.7,337.2c15.3,3,37,7,40.5,6.1c2.9-0.8,12.1-0.3,20.1,0.3c0.1-4,0.1-6.7,0.1-6.7l-59.3-8.5
	C480.9,331.3,480.5,334.3,479.7,337.2z"/>
<path class="st3" d="M464.6,333c0,0,50.2,10.6,55.7,9.2s33.3,1.4,33.3,1.4c12.2,8.9,7.5-3.7,7.5-3.7s1.3-6.4,0-11.7
	c-0.9-3.9-1.4-7.8-1.6-11.8c0,0,0.6-8.2-0.8-10.2s-2.7-15.8-2.7-15.8s-1-9.4-0.8-11.5s-0.1-7.9-0.1-7.9l-1.4-9.7
	c10.4-1,42.5-19.1,42.5-19.1c1.8-6.4,14.1-21.1,14.1-21.1c0.2-1.3,0.6-2.5,1.1-3.7c0.9-2.2-11.3-7-11.3-7s-9.7,10.9-11.7,13.9
	s-8.9,8.4-8.9,8.4c-1-0.1-2,0-3,0.3h-0.2l0,0c-2.3,0.8-4.4,1.9-6.3,3.3c-3.1-0.2-6.2,0.8-8.5,2.8c0,0-5.6-1-6.6-0.1
	s-5.8-0.2-5.8-0.2s-4.4-10.4-7.7-7.5s-16.7,2.2-16.7,2.2c-1.7-2.5-6-4.3-8.7-5.3c-2.3-0.9-4.8-1-7.2-0.4c-1,0.3-2,0.7-2.9,1.3
	l-8.5,7.7c0,0-2.2-3.1-1.9-3.8s-2.7-1.4-2.7-1.4s-4-1.4-5.5-1.9s-3,1.1-3.1,1.2c0.7-1.9,1-4,0.9-6c-0.3-2.6,1.8-4.9,1.8-4.9
	c-4.4-12-15.6-2.5-15.6-2.5s-1.5,6.4-0.5,9s-1.4,7.7-1.2,9.1s-0.7,3.7-0.8,6.3s1.1,7.6,1.8,9.9s7.2,7.5,7.2,7.5s0.1,7.9,2.8,12.5
	c2.7,4.7,0.3,20.2,0.3,20.2s-3.2,12-6.8,15.7S464.6,333,464.6,333z"/>
<path class="st11" d="M541.7,245.2c0,0,1.7-4.5,3.1-4.9c1.4-0.5,2.8-1,4.1-1.6l-0.8-1.7c0,0-5.2,1.2-6.1,2.7
	S541.7,245.2,541.7,245.2z"/>
<path class="st11" d="M569.8,236.2c0.2,1.4,12.4,3.1,12.4,3.1l-6-6.5l0,0h-0.2l0,0C573.8,233.6,571.7,234.8,569.8,236.2z"/>
<path class="st11" d="M540.2,282.5c0.1-0.1-32.4,37.9-55.7,14.3C484.6,296.8,522.4,303.4,540.2,282.5z"/>
<path class="st11" d="M548.7,262.8c-2.1,4.3-4.6,8.4-7.7,12.1c-3.3,4.1-7.3,7.6-11.7,10.5C529.3,285.3,548.3,265.4,548.7,262.8z"/>
<path class="st11" d="M555.6,241.5c0,0-3.6,13.3-11.8,17.5L555.6,241.5z"/>
<path class="st11" d="M560.3,243c0.1-0.2,2.3,10.7-10.9,16.2C549.4,259.2,555,257.5,560.3,243z"/>
<path class="st11" d="M479.5,230.9c0.2,0-6.6,4-8.5,5.9C471,236.8,475.6,230.5,479.5,230.9z"/>
<path class="st3" d="M521.9,223.3c-0.2,0.9-0.6,1.6-1.4,2.2c-0.5,0.2-1,0.3-1.6,0.3c-5,0.1-10.2,0.1-14.8-2
	c-0.8-0.3-1.6-0.9-2.2-1.6c-0.6-1.1-1-2.4-1.2-3.7c-0.6-2.5-1.9-4.7-2.8-7.1c-1.5-4-1.9-8.3-1.1-12.5c0.2-1.3,0.7-2.5,1.4-3.6
	c1.4-1.8,3.8-2.5,5.7-4s3-3.7,5.1-4.8c1.9-1,4.1-0.8,6.2-0.3c4.1,0.8,7.9,2.5,11.4,4.8c1.2,0.8,2.4,1.7,3.8,1.5
	c1.2-0.3,2.2-1.1,2.9-2.1c0.9,2.3,1.3,4.7,1,7.2c-0.1,0.4-0.1,0.7,0,1.1c0.2,0.4,0.4,0.8,0.7,1.2c1.2,1.5,1.9,3.8,0.6,5.2
	c-0.5,0.6-1.4,0.9-1.9,1.5c-1,1.1-0.7,2.8-0.8,4.3c0,0.5-0.1,1-0.4,1.4c-0.6,0.5-1.3,0.6-2,0.4c-0.7-0.2-1.4-0.3-2.2-0.3
	c-0.8,0.2-1.5,0.7-1.9,1.4C524,216.6,523,219.8,521.9,223.3z"/>
<g class="st8">
	<path d="M501.5,220.9c0.6,0.7,1.3,1.2,2.2,1.6c4.5,2.1,9.8,2.1,14.8,2c0.5,0,1.1-0.1,1.6-0.3c0.7-0.5,1.2-1.3,1.4-2.2
		c1.1-3.5,2.1-6.7,4.5-9.5c0.5-0.7,1.2-1.1,1.9-1.4c0.7,0,1.5,0.1,2.2,0.3c0.7,0.2,1.4,0.1,2-0.4c0.3-0.4,0.5-0.9,0.4-1.4
		c0-1.5-0.2-3.1,0.8-4.2c0.5-0.6,1.4-0.9,1.9-1.5c0.7-0.9,0.9-2.2,0.4-3.3c0.8,1.4,1.1,3.2,0.1,4.4c-0.6,0.6-1.4,0.9-1.9,1.5
		c-1,1.1-0.7,2.8-0.8,4.3c0,0.5-0.1,1-0.4,1.4c-0.6,0.5-1.3,0.6-2,0.4c-0.7-0.2-1.4-0.3-2.2-0.3c-0.8,0.2-1.5,0.7-1.9,1.4
		c-2.4,2.9-3.5,6-4.5,9.5c-0.2,0.9-0.6,1.6-1.4,2.2c-0.5,0.2-1,0.3-1.6,0.3c-5,0.1-10.2,0.1-14.8-2c-0.9-0.3-1.6-0.9-2.2-1.6
		c-0.3-0.4-0.5-0.9-0.7-1.4L501.5,220.9z"/>
	<path d="M534.3,198.2c-0.2-0.2-0.4-0.5-0.5-0.9c-0.1-0.4-0.1-0.7,0-1.1c0.2-2,0-4.1-0.5-6l0.1-0.1c0.9,2.3,1.2,4.8,1,7.2
		C534.3,197.7,534.3,198,534.3,198.2z"/>
</g>
<path class="st11" d="M524.4,233.3c0,0-20.6,1.9-22.3-1.2"/>
<path class="st11" d="M485,223.3c0,0-11.4-0.4-14,3.8"/>
</svg>
