<?xml version="1.0" encoding="utf-8"?>
<!-- Generator: Adobe Illustrator 25.0.1, SVG Export Plug-In . SVG Version: 6.00 Build 0)  -->
<svg version="1.1" id="a1e1094a-0c8c-49ef-9e46-7b691cb0c375"
	 xmlns="http://www.w3.org/2000/svg" xmlns:xlink="http://www.w3.org/1999/xlink" x="0px" y="0px" viewBox="0 0 955 680.5"
	 style="enable-background:new 0 0 955 680.5;" xml:space="preserve">
<style type="text/css">
	.st0{fill:none;stroke:#535461;stroke-width:2;stroke-miterlimit:10;}
	.st1{opacity:0.1;fill:#252223;enable-background:new    ;}
	.st2{opacity:0.3;fill:#6C63FF;enable-background:new    ;}
	.st3{opacity:0.4;fill:#FFFFFF;enable-background:new    ;}
	.st4{fill:#6C63FF;}
	.st5{fill:none;stroke:#535461;stroke-miterlimit:10;}
	.st6{opacity:0.25;enable-background:new    ;}
	.st7{fill:url(#SVGID_1_);}
	.st8{fill:url(#SVGID_2_);}
	.st9{fill:url(#SVGID_3_);}
	.st10{fill:url(#SVGID_4_);}
	.st11{fill:#333333;}
	.st12{fill:#535461;}
	.st13{opacity:3.000000e-02;enable-background:new    ;}
	.st14{opacity:0.1;}
	.st15{fill:#FDA57D;}
	.st16{fill:#4D8AF0;}
	.st17{fill:#F2F2F2;}
	.st18{fill:#72351C;}
	.st19{fill:#CBDAE3;}
	.st20{fill:#E9E9E9;}
	.st21{fill:#F48681;}
	.st22{opacity:5.000000e-02;enable-background:new    ;}
</style>
<path class="st0" d="M-133.2,637.6"/>
<path class="st1" d="M822.6,591.4c-51.7,43.9-120.4,67.7-188,80.7c-21.4,4.1-43.3,7.4-65.1,8.2c-2.6,0.1-5.3,0.2-7.9,0.2h-2.8
	c-21.5,0-42.9-2.6-63.4-9.2c-44.1-14.2-81.4-46.2-126.6-56.6c-53.9-12.5-110.5,7.5-165.4,0.2c-29.2-3.9-56.8-15.5-84-27
	c-7.4-3.2-14.8-6.3-21.9-10C362.3,521.8,672.2,563.9,822.6,591.4z"/>
<polygon class="st2" points="0,249 0,541 128,541 303,541 396,541 524,541 652,541 780,541 955,541 955,150 925,150 925,76 811,76 
	811,150 780,150 780,372 740,372 740,300 692,300 692,372 652,372 652,249 650,249 650,185 612,185 612,249 524,249 524,345 
	475,345 475,315 445,315 445,345 396,345 396,61 332,61 332,16 321,16 321,61 303,61 303,150 271,150 271,76 244,76 244,0 188,0 
	188,76 161,76 161,150 128,150 128,249 83,249 83,185 45,185 45,249 "/>
<rect x="894" y="173" class="st3" width="42" height="24"/>
<rect x="800" y="173" class="st3" width="42" height="24"/>
<rect x="894" y="220" class="st3" width="42" height="24"/>
<rect x="800" y="220" class="st3" width="42" height="24"/>
<rect x="894" y="267" class="st3" width="42" height="24"/>
<rect x="800" y="267" class="st3" width="42" height="24"/>
<rect x="894" y="314" class="st3" width="42" height="24"/>
<rect x="800" y="314" class="st3" width="42" height="24"/>
<rect x="894" y="361" class="st3" width="42" height="24"/>
<rect x="800" y="361" class="st3" width="42" height="24"/>
<rect x="894" y="408" class="st3" width="42" height="24"/>
<rect x="800" y="408" class="st3" width="42" height="24"/>
<rect x="894" y="455" class="st3" width="42" height="24"/>
<rect x="800" y="455" class="st3" width="42" height="24"/>
<rect x="667" y="396" class="st3" width="98" height="12"/>
<rect x="667" y="414" class="st3" width="98" height="12"/>
<rect x="667" y="432" class="st3" width="98" height="12"/>
<rect x="411" y="402" class="st3" width="98" height="12"/>
<rect x="411" y="420" class="st3" width="98" height="12"/>
<rect x="411" y="438" class="st3" width="98" height="12"/>
<rect x="667" y="450" class="st3" width="98" height="12"/>
<rect x="667" y="468" class="st3" width="98" height="12"/>
<rect x="667" y="486" class="st3" width="98" height="12"/>
<rect x="604" y="272" class="st3" width="27" height="35"/>
<rect x="545" y="272" class="st3" width="27" height="35"/>
<rect x="604" y="328" class="st3" width="27" height="35"/>
<rect x="545" y="328" class="st3" width="27" height="35"/>
<rect x="604" y="384" class="st3" width="27" height="35"/>
<rect x="545" y="384" class="st3" width="27" height="35"/>
<rect x="604" y="440" class="st3" width="27" height="35"/>
<rect x="545" y="440" class="st3" width="27" height="35"/>
<rect x="360" y="84" class="st3" width="36" height="46"/>
<rect x="360" y="150" class="st3" width="36" height="46"/>
<rect x="360" y="216" class="st3" width="36" height="46"/>
<rect x="360" y="282" class="st3" width="36" height="46"/>
<rect x="360" y="348" class="st3" width="36" height="46"/>
<rect x="360" y="414" class="st3" width="36" height="46"/>
<rect x="148.5" y="178" class="st3" width="134" height="39"/>
<rect x="148" y="262" class="st3" width="134" height="39"/>
<rect x="147.5" y="346" class="st3" width="134" height="39"/>
<rect x="147" y="430" class="st3" width="134" height="39"/>
<rect x="907" y="97" class="st3" width="18" height="38"/>
<rect x="0" y="272" class="st3" width="45" height="58"/>
<rect x="0" y="356" class="st3" width="45" height="58"/>
<rect x="0" y="440" class="st3" width="45" height="58"/>
<path class="st4" d="M904.1,478.9c-21.1-11.8-47.6-6-61.8,13.5c-35.4,48.4-3.4,107.8-3.4,107.8c145.1-73.1,66.4-120.6,66.4-120.6
	L904.1,478.9z"/>
<path class="st5" d="M838.9,600.2c-1.9-70.1,65.5-121.6,65.5-121.6"/>
<path class="st0" d="M831.7,335.5c-5.1,12.6-9,25.7-11.8,39c-5.7,28.1-1.6,57.1,10.7,83c29.3,61.7,4.6,145.4,4.6,145.4"/>
<path class="st4" d="M813.5,296.6c0-0.3,0-0.6,0-0.9c0.2-10.3,8.8-18.4,19-18.2c10.3,0.2,18.4,8.8,18.2,19c0,10.2-18.6,40-18.6,40
	S813.5,306.8,813.5,296.6L813.5,296.6z"/>
<path class="st4" d="M782.7,353.4c-5.2-8.4-2.8-19.5,5.4-25.1c8.5-5.8,20-3.6,25.8,4.9c5.6,8.6,6.2,43.7,6.2,43.7
	S788.3,362,782.7,353.4L782.7,353.4z"/>
<path class="st4" d="M784.1,450.6c-8.8-4.7-12.4-15.5-8.1-24.5c4.4-9.3,15.5-13.2,24.8-8.7c9.2,4.6,27.4,34.6,27.4,34.6
	S793.3,455.2,784.1,450.6L784.1,450.6z"/>
<path class="st4" d="M801.4,523.7c-8.2-6.2-9.9-17.8-3.7-26c6.2-8.2,17.8-9.9,26-3.7c8.2,6.1,21.1,38.8,21.1,38.8s-35-2.8-43.2-8.9
	C801.6,523.8,801.5,523.8,801.4,523.7z"/>
<path class="st4" d="M859.1,378.9c0.2-0.2,0.4-0.4,0.6-0.6c7.2-7.3,7.1-19.1-0.2-26.3c-7.3-7.2-19.1-7.1-26.3,0.2
	c-7.4,7.2-15.8,41.2-15.8,41.2S851.8,386.1,859.1,378.9L859.1,378.9z"/>
<path class="st4" d="M878.6,464.9c8.8-4.7,12.4-15.5,8.1-24.5c-4.4-9.3-15.5-13.2-24.8-8.7c-9.2,4.6-27.4,34.6-27.4,34.6
	S869.4,469.5,878.6,464.9L878.6,464.9z"/>
<path class="st4" d="M886,551c8.1-6.1,9.8-17.6,3.9-25.8c-6-8.3-17.7-10.1-26-4.1c-8.3,6.1-21.1,38.7-21.1,38.7S877.8,557.1,886,551
	L886,551z"/>
<path class="st6" d="M813.5,296.6c0-0.3,0-0.6,0-0.9c0.2-10.3,8.8-18.4,19-18.2c10.3,0.2,18.4,8.8,18.2,19c0,10.2-18.6,40-18.6,40
	S813.5,306.8,813.5,296.6L813.5,296.6z"/>
<path class="st6" d="M782.7,353.4c-5.2-8.4-2.8-19.5,5.4-25.1c8.5-5.8,20-3.6,25.8,4.9c5.6,8.6,6.2,43.7,6.2,43.7
	S788.3,362,782.7,353.4L782.7,353.4z"/>
<path class="st6" d="M784.1,450.6c-8.8-4.7-12.4-15.5-8.1-24.5c4.4-9.3,15.5-13.2,24.8-8.7c9.2,4.6,27.4,34.6,27.4,34.6
	S793.3,455.2,784.1,450.6L784.1,450.6z"/>
<path class="st6" d="M801.4,523.7c-8.2-6.2-9.9-17.8-3.7-26c6.2-8.2,17.8-9.9,26-3.7c8.2,6.1,21.1,38.8,21.1,38.8s-35-2.8-43.2-8.9
	C801.6,523.8,801.5,523.8,801.4,523.7z"/>
<path class="st6" d="M859.1,378.9c0.2-0.2,0.4-0.4,0.6-0.6c7.2-7.3,7.1-19.1-0.2-26.3c-7.3-7.2-19.1-7.1-26.3,0.2
	c-7.4,7.2-15.8,41.2-15.8,41.2S851.8,386.1,859.1,378.9L859.1,378.9z"/>
<path class="st6" d="M878.6,464.9c8.8-4.7,12.4-15.5,8.1-24.5c-4.4-9.3-15.5-13.2-24.8-8.7c-9.2,4.6-27.4,34.6-27.4,34.6
	S869.4,469.5,878.6,464.9L878.6,464.9z"/>
<path class="st6" d="M886,551c8.1-6.1,9.8-17.6,3.9-25.8c-6-8.3-17.7-10.1-26-4.1c-8.3,6.1-21.1,38.7-21.1,38.7S877.8,557.1,886,551
	L886,551z"/>
<path class="st0" d="M61.6,313.8c-5.1,12.6-9,25.7-11.8,39c-5.7,28.1-1.6,57.1,10.7,83c29.3,61.7,4.6,145.4,4.6,145.4"/>
<path class="st4" d="M43.4,274.9c0-0.3,0-0.6,0-0.9c0.2-10.3,8.8-18.4,19-18.2c10.3,0.2,18.4,8.8,18.2,19c0,10.2-18.6,40-18.6,40
	S43.4,285.2,43.4,274.9L43.4,274.9z"/>
<path class="st4" d="M12.7,331.8c-0.2-0.3-0.3-0.5-0.5-0.8c-5.4-8.8-2.6-20.2,6.1-25.6c8.8-5.4,20.2-2.6,25.6,6.1
	c5.6,8.6,6.2,43.7,6.2,43.7S18.3,340.4,12.7,331.8L12.7,331.8z"/>
<path class="st4" d="M14,429c-8.8-4.7-12.4-15.5-8.1-24.5c4.4-9.3,15.5-13.2,24.8-8.7c9.2,4.6,27.4,34.6,27.4,34.6
	S23.2,433.6,14,429L14,429z"/>
<path class="st4" d="M27.7,476.5c6-8.3,17.7-10.1,26-4.1c8.2,6.1,21.1,38.8,21.1,38.8s-35-2.8-43.2-8.9
	C23.5,496.1,21.8,484.7,27.7,476.5z"/>
<path class="st4" d="M89.5,331c-7.2-7.4-18.9-7.5-26.3-0.4c-7.4,7.2-15.8,41.2-15.8,41.2s34.3-7.4,41.7-14.6
	C96.4,350.1,96.6,338.3,89.5,331z"/>
<path class="st4" d="M116.5,418.9c-4.4-9.3-15.5-13.2-24.8-8.9c-9.2,4.6-27.4,34.6-27.4,34.6s34.9,3.2,44.1-1.4
	C117.2,438.6,120.8,427.9,116.5,418.9z"/>
<path class="st4" d="M119.8,503.6c-6-8.3-17.7-10.1-26-4.1c-8.2,6.1-21.1,38.8-21.1,38.8s35-2.8,43.2-8.9
	C124.1,523.3,125.8,511.8,119.8,503.6z"/>
<path class="st0" d="M174.6,429.4c-2.7,6.8-4.9,13.8-6.3,20.9c-3,15.1-0.9,30.7,5.8,44.6c15.8,33.1,2.5,78.1,2.5,78.1"/>
<path class="st4" d="M174.8,398.5c5.5,0,10,4.5,10,10c0,5.5-10,21.5-10,21.5s-10-16-10-21.5C164.8,403,169.3,398.5,174.8,398.5z"/>
<path class="st4" d="M147.8,438.3c-2.8-4.8-1.2-10.9,3.6-13.7c4.8-2.8,10.9-1.2,13.7,3.6c3,4.6,3.3,23.5,3.3,23.5s-17.1-8-20.1-12.6
	C148.1,438.8,147.9,438.5,147.8,438.3z"/>
<path class="st4" d="M149,491.3c-4.5-2.5-6.4-8.1-4.2-12.8c2.3-5,8.2-7.3,13.2-5c4.9,2.5,14.7,18.6,14.7,18.6S153.9,493.7,149,491.3
	L149,491.3z"/>
<path class="st4" d="M156.5,517.3c3.1-4.6,9.3-5.8,13.9-2.8c4.4,3.3,11.4,20.8,11.4,20.8s-18.8-1.5-23.2-4.8
	C154.5,527.4,153.6,521.6,156.5,517.3z"/>
<path class="st4" d="M189.3,452.8c0.2-0.2,0.5-0.4,0.7-0.7c3.8-4,3.6-10.4-0.5-14.1c-4-3.8-10.4-3.6-14.1,0.5
	c-4,3.8-8.5,22.2-8.5,22.2S185.3,456.6,189.3,452.8L189.3,452.8z"/>
<path class="st4" d="M199.8,499c4.5-2.5,6.4-8.1,4.2-12.8c-2.3-5-8.2-7.3-13.2-5c-4.9,2.5-14.7,18.6-14.7,18.6
	S194.9,501.4,199.8,499L199.8,499z"/>
<path class="st4" d="M205.8,531.8c-3.1-4.6-9.3-5.8-13.9-2.6c-4.4,3.3-11.4,20.8-11.4,20.8s18.8-1.5,23.2-4.8
	C207.9,542,208.7,536.1,205.8,531.8z"/>
<path class="st1" d="M690.3,47.7c-0.1,0-0.3,0-0.4,0c-2.7,0.1-4.7,2.4-4.6,5c0.1,2.7,2.4,4.7,5,4.6h9.6c-0.1,0-0.3,0-0.4,0
	c-2.7,0.1-4.7,2.4-4.6,5c0.1,2.7,2.4,4.7,5,4.6h55.7c0.1,0,0.3,0,0.4,0c2.7-0.1,4.7-2.4,4.6-5c-0.1-2.7-2.4-4.7-5-4.6H746
	c0.1,0,0.3,0,0.4,0c2.7-0.1,4.7-2.4,4.6-5c-0.1-2.7-2.4-4.7-5-4.6h6.9c2.5-0.1,4.5-2.1,4.6-4.6c0.1-2.7-1.9-4.9-4.6-5h-55.7
	c-0.1,0-0.3,0-0.4,0c-2.7,0.1-4.7,2.4-4.6,5s2.4,4.7,5,4.6H690.3L690.3,47.7z"/>
<path class="st1" d="M443.9,168.7c-2.7,0.1-4.7,2.4-4.6,5c0.1,2.7,2.4,4.7,5,4.6h9.6c-0.1,0-0.3,0-0.4,0c-2.7,0.1-4.7,2.4-4.6,5
	c0.1,2.7,2.4,4.7,5,4.6h55.7c0.1,0,0.3,0,0.4,0c2.7-0.1,4.7-2.4,4.6-5c-0.1-2.7-2.4-4.7-5-4.6H500c0.1,0,0.3,0,0.4,0
	c2.7-0.1,4.7-2.4,4.6-5c-0.1-2.7-2.4-4.7-5-4.6h6.9c2.5-0.1,4.5-2.1,4.6-4.6c0.1-2.7-1.9-4.9-4.6-5h-55.7c-0.1,0-0.3,0-0.4,0
	c-2.7,0.1-4.7,2.4-4.6,5c0.1,2.7,2.4,4.7,5,4.6h-6.9C444.2,168.7,444,168.7,443.9,168.7z"/>
<path class="st1" d="M24.9,10.7c-2.7,0.1-4.7,2.4-4.6,5s2.4,4.7,5,4.6h9.6c-2.5,0.1-4.5,2.1-4.6,4.6c-0.1,2.7,1.9,4.9,4.6,5h55.7
	c0.1,0,0.3,0,0.4,0c2.7-0.1,4.7-2.4,4.6-5c-0.1-2.7-2.4-4.7-5-4.6H81c0.1,0,0.3,0,0.4,0c2.7-0.1,4.7-2.4,4.6-5
	c-0.1-2.7-2.4-4.7-5-4.6h6.9c2.5-0.1,4.5-2.1,4.6-4.6c0.1-2.7-1.9-4.9-4.6-5H32.2c-0.1,0-0.3,0-0.4,0c-2.7,0.1-4.7,2.4-4.6,5
	c0.1,2.7,2.4,4.7,5,4.6h-6.9C25.2,10.7,25,10.7,24.9,10.7z"/>
<linearGradient id="SVGID_1_" gradientUnits="userSpaceOnUse" x1="410.6919" y1="235.1134" x2="677" y2="235.1134" gradientTransform="matrix(-1 0 0 -1 1077.5 570.25)">
	<stop  offset="0" style="stop-color:#808080;stop-opacity:0.25"/>
	<stop  offset="0.54" style="stop-color:#808080;stop-opacity:0.12"/>
	<stop  offset="1" style="stop-color:#808080;stop-opacity:0.1"/>
</linearGradient>
<path class="st7" d="M400.5,587.2c0,0,63.1,21,84.7,15.4s-9.8-11.7-9.8-11.7c-7.7,0.3-17.9-10.7-23.7-17.7
	c-0.9-13.6,26.5-74.4,26.5-74.4l20.6-35.5l18.5-47.5c15.7,25,28.3,56.4,28.3,56.4c-1.4,10.3,15,76.7,22,83.3s5.1,18.3,5.1,18.3
	l1-0.4c0,0.2,0,0.4,0,0.4l0.7-0.3l3,23.7c0,0,79.1-10.3,88-17.3c8.9-7-22.9-6.1-22.9-6.1c-13.2-0.3-26.7-8.8-33.1-13.4l0.4-0.1
	l-19.6-95c1.4-19.2-9.4-37.9-9.4-37.9c-6.9-24.9-19.8-49.6-29.6-66.4l0.8,1.4l0.2-5.8l3.5,5.8l0.3-5.7l0.7,0.5
	c-0.3-0.2-0.5-0.5-0.7-0.8v-0.6l0.7,0.5c-0.2-0.2-0.5-0.5-0.7-0.7V355l1.6,1.1c-0.6-0.6-1.1-1.2-1.6-1.9l2.1-54
	c7.2,4.9,18.9,12.5,22.2,13.3c5,1.2,13.6,6.5,13.6,6.5c3,3.6,6.4,6.9,10.2,9.8l-1.7,3.5c0,0,0,0,0,0c-1,2-0.1,4.5,1.9,5.5l5.7,2.7
	l2.9,1.4c0,0,0,0,0,0c2,1,4.5,0.1,5.5-1.9l2-4.2c3.1,0.1,6.1-0.9,8.5-2.7c6.5-4.6,4.1-9.6-0.6-13.8l3.3-6.9c1-2,0.1-4.5-1.9-5.5
	l-1.3-0.6l0,0l-1.7-0.8l-4-1.9l0,0l-1.7-0.8c0,0,0,0,0,0c-2-1-4.5-0.1-5.5,1.9l-2.8,5.7c-1-0.3-2.1-0.5-3.2-0.6
	c-2.4-0.4-4.8-1.4-6.9-2.7c-1.5-0.9-3.1-1.7-4.8-2.4c-11.5-4.6-27.2-21.9-34-29.8l1.3-1.7l-6.1-5.4l1.4-36.7l-14.4-35.6
	c6.9-4-4.4-15.9-9.8-21c2.4-5,5.2-9.8,8.4-14.3c0.7-0.2,1.5-0.3,2.2-0.5c17.7-4.9,28-23.3,23-40.9c4.4-0.1,9.1-1.8,9.9-6
	c1.2-6.1-7-10.1-8.3-16.2c-0.5-2.3,0.1-4.7-0.2-7c-0.5-4.7-4.3-8.3-8.2-11c-2.7-1.9-5.6-3.6-8.5-5c-8.4-4.2-17.6-6.6-26.9-6.8v-0.1
	c0,0,0,0,0,0c-0.1-0.6-0.7-1-1.3-0.9L516,68.7c-0.6,0.1-1,0.6-0.9,1.2c-1.4,1.3-2,3.3-3,4.9c-3.8,6.1-12.3,6.8-18.4,10.7
	c-7.1,4.5-10.7,13.2-11,21.6s2.1,16.7,4.5,24.8c2,6.9,4.1,13.9,8.6,19.6c2.2,2.8,5,5,8.1,6.5c0.4,0.2,0.8,0.4,1.3,0.6
	c0,0.1-0.1,0.3-0.1,0.4c-3.8,7.6-13.7,10-13.7,10l-20.8,10.1c-5.1,2.5-9.4,6.3-12.5,11c-10.8,13.3-37.4,48-37,69.6
	c-0.1,1.9,0.2,3.9,0.6,5.7c0,0,1.2-0.3,3.2-0.6c-1,12.9-2.2,32.8-0.4,39c2.8,9.4,2.8,27.6,2.8,27.6s-14.9,32.8,5.6,41.6
	s14-38.8,14-38.8v-37l3.9-31.4c0.6,0.4,1.2,0.9,1.7,1.4c0.6-1.7,1.2-3.5,2-5.1c1,13.2,1.1,28.8,5,41.6c0.1,0.4,0.2,0.8,0.4,1.2
	c3.3,11.7,4.4,28.9,4.8,42.4l-0.4,0.2v0.2l-0.5,0.2c0.3,1.6,0.6,3.1,1,4.5c0,1.8,0,3.6,0,5.1c0,5.7-0.1,9.3-0.1,9.3l0,0
	c0,0.6,0,0.9,0,0.9c0.8,0.4,1.8,0.5,2.7,0.1c0.3,1.1,0.7,2.2,1.2,3.3l0.2,0.5c1.1,2.4,2.5,4.6,4.2,6.6l0.3,0.4l0.3,0.3
	c0.3,0.4,0.5,0.5,0.5,0.5l-12.6,61.3c0.5,10.3-9.8,16.4-9.8,16.4c-9.8,13.1-44.9,109.5-44.9,109.5h0.2L400.5,587.2z M546.8,353.9
	c-1.1-1.8-2.1-3.5-3.1-5l0.2,0.1L546.8,353.9z"/>
<linearGradient id="SVGID_2_" gradientUnits="userSpaceOnUse" x1="518.88" y1="213.625" x2="520.07" y2="213.625" gradientTransform="matrix(-1 0 0 -1 1077.5 570.25)">
	<stop  offset="0" style="stop-color:#808080;stop-opacity:0.25"/>
	<stop  offset="0.54" style="stop-color:#808080;stop-opacity:0.12"/>
	<stop  offset="1" style="stop-color:#808080;stop-opacity:0.1"/>
</linearGradient>
<path class="st8" d="M558.6,357.1c0,0-0.4-0.3-1.2-0.9C557.8,356.5,558.2,356.8,558.6,357.1z"/>
<linearGradient id="SVGID_3_" gradientUnits="userSpaceOnUse" x1="519.81" y1="212.685" x2="521.01" y2="212.685" gradientTransform="matrix(-1 0 0 -1 1077.5 570.25)">
	<stop  offset="0" style="stop-color:#808080;stop-opacity:0.25"/>
	<stop  offset="0.54" style="stop-color:#808080;stop-opacity:0.12"/>
	<stop  offset="1" style="stop-color:#808080;stop-opacity:0.1"/>
</linearGradient>
<path class="st9" d="M557.7,358c0,0-0.4-0.3-1.2-0.9C556.9,357.5,557.3,357.8,557.7,358z"/>
<linearGradient id="SVGID_4_" gradientUnits="userSpaceOnUse" x1="519.81" y1="213.625" x2="521.01" y2="213.625" gradientTransform="matrix(-1 0 0 -1 1077.5 570.25)">
	<stop  offset="0" style="stop-color:#808080;stop-opacity:0.25"/>
	<stop  offset="0.54" style="stop-color:#808080;stop-opacity:0.12"/>
	<stop  offset="1" style="stop-color:#808080;stop-opacity:0.1"/>
</linearGradient>
<path class="st10" d="M557.7,357.1c0,0-0.4-0.3-1.2-0.9C556.9,356.5,557.3,356.8,557.7,357.1z"/>
<path class="st11" d="M411.2,557.1l-7.3,23.8c0,0,61.6,20.5,82.5,15s-9.6-11.4-9.6-11.4c-11,0.5-27.4-22.8-27.4-22.8L411.2,557.1z"
	/>
<path class="st12" d="M515.1,343.2c0,0-34.6-8.6-43.8,6.9c-0.4,0.8-0.8,1.5-1.2,2.2c-6.7,14.4,5.3,26,5.3,26l-12.3,59.8
	c0.4,10.1-9.6,16-9.6,16c-9.6,12.7-43.8,106.7-43.8,106.7l44,7.1c-1.8-11.9,25.8-73.2,25.8-73.2l20.1-34.7l23.3-59.8L515.1,343.2z"
	/>
<path class="st13" d="M515.1,343.2c0,0-34.6-8.6-43.8,6.9c-0.4,0.8-0.8,1.5-1.2,2.2c-6.7,14.4,5.3,26,5.3,26l-12.3,59.8
	c0.4,10.1-9.6,16-9.6,16c-9.6,12.7-43.8,106.7-43.8,106.7l44,7.1c-1.8-11.9,25.8-73.2,25.8-73.2l20.1-34.7l23.3-59.8L515.1,343.2z"
	/>
<g class="st14">
	<path d="M409.8,560.9l44,7.1c0-0.1,0-0.1,0-0.2l-42.6-6.8c0,0,34.2-93.9,43.8-106.7c0,0,10-6,9.6-16l12.3-59.8c0,0-12-11.5-5.3-26
		c0.3-0.7,0.7-1.5,1.2-2.2c4.2-7.2,13.9-9.2,23.1-9.2c-9.6-0.1-20,1.7-24.4,9.2c-0.4,0.8-0.8,1.5-1.2,2.2c-6.7,14.4,5.3,26,5.3,26
		l-12.3,59.8c0.4,10.1-9.6,16-9.6,16C444,466.9,409.8,560.9,409.8,560.9z"/>
</g>
<path class="st11" d="M572.8,563.8l3.4,26.7c0,0,77.1-10,85.7-16.9c8.6-6.8-22.4-5.9-22.4-5.9c-17.8-0.5-36-16-36-16L572.8,563.8z"
	/>
<g class="st14">
	<path d="M465.5,347.7c3.2,18.5,14.1,23.5,36,44.9s43.8,76.2,43.8,76.2c-1.4,10,14.6,74.8,21.4,81.2s5,17.8,5,17.8l35.1-13.2
		l-19.1-92.6c1.4-18.7-9.1-36.9-9.1-36.9c-11.9-42.9-42-85.3-42-85.3C517,322.8,465.4,347.7,465.5,347.7z"/>
</g>
<path class="st12" d="M466.4,347.7c3.2,18.5,14.1,23.5,36,44.9s43.8,76.2,43.8,76.2c-1.4,10,14.6,74.8,21.4,81.2s5,17.8,5,17.8
	l35.1-13.2l-19.2-92.6c1.4-18.7-9.1-36.9-9.1-36.9c-11.9-42.9-42-85.3-42-85.3C517.9,322.8,466.3,347.7,466.4,347.7z"/>
<g class="st14">
	<path d="M465.9,347.2c3.2,18.5,14.1,23.5,36,44.9s43.8,76.2,43.8,76.2c-1.4,10,14.6,74.8,21.5,81.2s5,17.8,5,17.8l1.4-0.5
		c0.2-2.3,0.9-11.7-5.1-17.2c-6.8-6.4-22.8-71.2-21.4-81.2c0,0-21.9-54.7-43.8-76.2s-32.8-26.4-36-44.9c0,0,28.2-13.6,50.8-13.9
		C495.2,333,465.9,347.2,465.9,347.2z"/>
</g>
<path class="st15" d="M551.6,297.2c0,0,22.5,15.7,27.4,16.9s13.2,6.4,13.2,6.4s19.6,24.2,34.2,13.7c11.6-8.4-6-17.9-13.6-21.4
	c-1.6-0.7-3.3-1.2-5.1-1.3c-2.4-0.4-4.7-1.3-6.7-2.6c-1.5-0.9-3.1-1.7-4.7-2.3c-14.7-5.9-36.5-33-36.5-33L551.6,297.2z"/>
<polygon class="st16" points="551.6,291.8 564.4,275.8 555.7,268 "/>
<g class="st14">
	<polygon points="551.6,291.8 564.4,275.8 555.7,268 	"/>
</g>
<path class="st16" d="M530.9,184.1l10.6,21c11.1,10,7.2,52.5,7.2,52.5l-13.5,71.1l19.8,32.8l4.8-126.8l-14-34.7
	c8.7-5-12.1-22.8-12.1-22.8L530.9,184.1z"/>
<g class="st14">
	<path d="M527.2,184.1l10.6,21c11.1,10,7.2,52.5,7.2,52.5l-13.5,71.1l19.8,32.8l4.8-126.8l-14-34.7c8.7-5-12.1-22.8-12.1-22.8
		L527.2,184.1z"/>
</g>
<path class="st15" d="M510.6,139.4c3.2,16-9.1,31-9.1,31s32.4,32.4,31.9,20.5s16.4-32.4,16.4-32.4S507.4,123.5,510.6,139.4z"/>
<path class="st15" d="M428.5,255.2c0,0-4.1,40.1-1.4,49.2s2.7,26.9,2.7,26.9s-14.6,31.9,5.5,40.6s13.7-37.9,13.7-37.9v-36l4.6-36.5
	L428.5,255.2z"/>
<path class="st17" d="M522.4,201.9l6.8,47.4l4.6,78l13.7,1.8l3.1-82.2c0.7-14.3-1.8-28.6-7.1-41.9l-8.8-21.8
	c-6.4,4.1-18.7-7.8-18.7-7.8L522.4,201.9z"/>
<g class="st14">
	<path d="M493.2,173.2l-20.3,9.8c-8,3.9-13.9,11-16.1,19.6c-4.2,16.6-4.2,38.9-4.2,38.9c7.3,12.3,3.2,41,9.6,62
		c0.1,0.4,0.2,0.8,0.3,1.2c6,21.3,4.7,61.3,4.7,61.3c5.5,3.2,24.2-17.8,40.6-26.5s50.2,16.9,50.2,16.9c-7.3-3.6-14.1-39.2-14.1-39.2
		s-4.1-36.5-5-63.9s-4.6-50.2-8.2-54.7s-4.1-15-4.1-15c-4.5-9.6-20.7-20.8-20.7-20.8C504,171.6,493.2,173.2,493.2,173.2z"/>
</g>
<g class="st14">
	<path d="M492.3,174.1l-20.3,9.8c-8,3.9-13.9,11-16.1,19.6c-4.2,16.6-4.2,38.9-4.2,38.9c7.3,12.3,3.2,41,9.6,62
		c0.1,0.4,0.2,0.8,0.3,1.2c6,21.3,4.7,61.3,4.7,61.3c5.5,3.2,24.2-17.8,40.6-26.5s50.2,16.9,50.2,16.9c-7.3-3.6-14.1-39.2-14.1-39.2
		s-4.1-36.5-5-63.9s-4.6-50.2-8.2-54.7s-4.1-15-4.1-15c-4.6-9.6-19.8-21.7-19.8-21.7C504,171.6,492.3,174.1,492.3,174.1z"/>
</g>
<path class="st16" d="M492.3,173.2L472,183c-8,3.9-13.9,11-16.1,19.6c-4.2,16.6-4.2,38.9-4.2,38.9c7.3,12.3,3.2,41,9.6,62
	c0.1,0.4,0.2,0.8,0.3,1.2c6,21.3,4.7,61.3,4.7,61.3c5.5,3.2,24.2-17.8,40.6-26.4s50.2,16.9,50.2,16.9c-7.3-3.6-14.1-39.2-14.1-39.2
	s-4.1-36.5-5-63.9s-4.6-50.2-8.2-54.7s-4.1-15-4.1-15c-4.6-9.6-19.6-21-19.6-21C502.6,170.7,492.3,173.2,492.3,173.2z"/>
<g class="st14">
	<path d="M474.5,242.5c-15.1,9.6-20.1,26.5-20.1,26.5c-6.4-7.3-30.1-1.8-30.1-1.8c-6.4-25.1,39.9-77.8,39.9-77.8
		C503.5,171.6,489.6,232.9,474.5,242.5z"/>
</g>
<path class="st16" d="M474.5,241.6c-15.1,9.6-20.1,26.5-20.1,26.5c-6.4-7.3-30.1-1.8-30.1-1.8c-6.4-25.1,39.9-77.8,39.9-77.8
	C503.5,170.7,489.6,232,474.5,241.6z"/>
<g class="st14">
	<path d="M536.1,168.6c2.2,0,4.4-0.2,6.6-0.7c2.9-4.2,5.3-7.1,5.3-7.1s-42.4-35.2-39.2-19.2c0.8,4,1.4,4.3,0.7,8
		C515.2,158.8,524.5,168.6,536.1,168.6z"/>
</g>
<circle class="st15" cx="537.9" cy="133.9" r="32.4"/>
<g class="st14">
	<path d="M539.7,126.9c-3.4,3.5-5.2,8.3-6.3,13c-0.9,3.8-1.8,7.9-4.7,10.4s-7.1,2.8-10.4,4.7s-5.6,7-2.5,9.3
		c-6.8,1.6-13.9-2.2-18.3-7.7s-6.4-12.4-8.4-19.1c-2.3-7.9-4.7-15.9-4.3-24.1s3.7-16.7,10.7-21.1c5.9-3.7,14.2-4.4,17.9-10.4
		c1.1-1.7,1.7-3.8,3.2-5.1c1.5-1,3.3-1.6,5.1-1.6c14.5-1.3,28.9,2.5,40.8,10.9c3.8,2.7,7.5,6.2,8,10.7c0.3,2.3-0.3,4.6,0.2,6.8
		c1.2,6,9.2,9.8,8.1,15.8c-0.9,4.7-7,6.3-11.8,5.7C558.7,124,546.5,120.1,539.7,126.9z"/>
</g>
<path class="st18" d="M538.8,126.4c-3.4,3.5-5.2,8.3-6.3,13c-1,3.8-1.8,7.9-4.7,10.4s-7.1,2.8-10.4,4.7s-5.6,7-2.5,9.3
	c-6.8,1.6-13.9-2.2-18.3-7.7s-6.4-12.4-8.4-19.1c-2.3-7.9-4.7-15.9-4.3-24.1s3.7-16.7,10.7-21.1c5.9-3.7,14.2-4.4,17.9-10.4
	c1.1-1.7,1.7-3.8,3.2-5.1c1.5-1,3.3-1.6,5.1-1.6c14.5-1.3,28.9,2.5,40.8,10.9c3.8,2.7,7.5,6.2,8,10.7c0.3,2.3-0.3,4.6,0.2,6.8
	c1.2,6,9.2,9.8,8.1,15.8c-0.9,4.7-7,6.3-11.8,5.7C557.8,123.5,545.6,119.7,538.8,126.4z"/>
<path class="st19" d="M522.6,130l18.3-3.6l-10-37.1l-2.9-15c0,0,0,0,0,0c-0.1-0.6-0.7-1-1.3-0.9l-10.3,2c0,0,0,0,0,0
	c-0.6,0.1-1,0.7-0.9,1.3l2.9,15L522.6,130z"/>
<g class="st14">
	<ellipse transform="matrix(7.088900e-02 -0.9975 0.9975 7.088900e-02 361.4823 657.3438)" cx="533.6" cy="134.6" rx="16" ry="16"/>
</g>
<ellipse transform="matrix(7.088899e-02 -0.9975 0.9975 7.088899e-02 361.0335 657.7619)" class="st19" cx="533.6" cy="135.1" rx="16" ry="16"/>
<ellipse transform="matrix(7.088896e-02 -0.9975 0.9975 7.088896e-02 361.0335 657.7619)" class="st20" cx="533.6" cy="135.1" rx="10.5" ry="10.5"/>
<circle class="st21" cx="533.6" cy="135.1" r="3.2"/>
<rect x="518" y="89.2" transform="matrix(0.9815 -0.1917 0.1917 0.9815 -7.4143 102.1718)" class="st22" width="12.8" height="0.5"/>
<path class="st19" d="M627.5,317.4l-9.7,20.1c-1.9,3.9-6.5,5.5-10.3,3.6l0,0c-3.9-1.9-5.5-6.5-3.6-10.3l9.7-20.1
	c1.9-3.9,6.5-5.5,10.3-3.6l0,0C627.7,308.9,629.3,313.6,627.5,317.4z"/>
<g class="st14">
	<path d="M627.5,317.4l-9.7,20.1c-1.9,3.9-6.5,5.5-10.3,3.6l0,0c-3.9-1.9-5.5-6.5-3.6-10.3l9.7-20.1c1.9-3.9,6.5-5.5,10.3-3.6l0,0
		C627.7,308.9,629.3,313.6,627.5,317.4z"/>
</g>
<path class="st19" d="M626.1,317l-9.5,19.7c-1.9,4-6.7,5.6-10.7,3.7l0,0c-4-1.9-5.6-6.7-3.7-10.7l9.5-19.7c1.9-4,6.7-5.6,10.7-3.7v0
	C626.4,308.3,628,313.1,626.1,317z"/>
<rect x="600.6" y="315.8" transform="matrix(0.4343 -0.9008 0.9008 0.4343 58.0445 735.993)" class="st17" width="28.7" height="12.1"/>
<ellipse transform="matrix(0.4343 -0.9008 0.9008 0.4343 39.4501 737.8272)" class="st17" cx="607.1" cy="337.5" rx="1.8" ry="1.4"/>
</svg>
